<svg width="96" height="96" viewBox="0 0 96 96" fill="none" xmlns="http://www.w3.org/2000/svg">
<path fill-rule="evenodd" clip-rule="evenodd" d="M56 8H38V88H56V80H48V76H56V70H52V66H56V60H52V56H56V50H48V46H56V40H52V36H56V30H52V26H56V20H48V16H56V8Z" fill="#15614F"/>
<path fill-rule="evenodd" clip-rule="evenodd" d="M66 56C63.7908 56 62 57.7908 62 60V70H76V60C76 57.7908 74.2092 56 72 56H66ZM76 74H62V84C62 86.2092 63.7908 88 66 88H72C74.2092 88 76 86.2092 76 84V74Z" fill="#15614F"/>
<path fill-rule="evenodd" clip-rule="evenodd" d="M66 60V66H72V60H66ZM76 60C76 57.7908 74.2092 56 72 56H66C63.7908 56 62 57.7908 62 60V70H76V60ZM62 74H76V84C76 86.2092 74.2092 88 72 88H66C63.7908 88 62 86.2092 62 84V74ZM72 78H66V84H72V78Z" fill="#15614F"/>
<path fill-rule="evenodd" clip-rule="evenodd" d="M26 22C22.6862 22 20 24.6862 20 28V34H32V28C32 24.6862 29.3138 22 26 22ZM32 38H20V80L26 88L32 80V38Z" fill="#15614F"/>
</svg>
