<svg width="96" height="96" viewBox="0 0 96 96" fill="none" xmlns="http://www.w3.org/2000/svg">
<path fill-rule="evenodd" clip-rule="evenodd" d="M18 12C14.6863 12 12 14.6863 12 18V78C12 81.3138 14.6863 84 18 84H78C81.3138 84 84 81.3138 84 78V18C84 14.6863 81.3138 12 78 12H18ZM26 34C26 32.8954 26.8954 32 28 32H42C43.1046 32 44 32.8954 44 34V38C44 39.1046 43.1046 40 42 40H40V48.0952L48.4622 61.796C51.7542 67.1258 47.9204 74 41.6558 74H28.3442C22.0796 74 18.2458 67.1258 21.5378 61.796L30 48.0952V40H28C26.8954 40 26 39.1046 26 38V34Z" fill="#15614F"/>
<path d="M60.9197 44.7567C61.3452 44.5813 61.548 44.0943 61.3727 43.6687C61.1972 43.2432 60.7102 43.0404 60.2847 43.2158L53.747 45.91C53.3215 46.0853 53.1187 46.5724 53.294 46.998C53.4694 47.4235 53.9565 47.6263 54.382 47.4509L60.9197 44.7567Z" fill="white"/>
<path fill-rule="evenodd" clip-rule="evenodd" d="M65.6667 45.3333C65.6667 49.9357 61.9357 53.6667 57.3333 53.6667C52.731 53.6667 49 49.9357 49 45.3333C49 40.731 52.731 37 57.3333 37C61.9357 37 65.6667 40.731 65.6667 45.3333ZM64 45.3333C64 49.0152 61.0152 52 57.3333 52C53.6514 52 50.6667 49.0152 50.6667 45.3333C50.6667 41.6514 53.6514 38.6667 57.3333 38.6667C61.0152 38.6667 64 41.6514 64 45.3333Z" fill="white"/>
<path d="M73.9256 60.2709C74.3742 60.3741 74.8213 60.0941 74.9245 59.6455C75.0276 59.197 74.7476 58.7497 74.299 58.6467L67.4078 57.0624C66.9592 56.9592 66.512 57.2392 66.4088 57.6878C66.3058 58.1363 66.5858 58.5836 67.0343 58.6867L73.9256 60.2709Z" fill="white"/>
<path fill-rule="evenodd" clip-rule="evenodd" d="M70.6667 67C75.269 67 79 63.269 79 58.6667C79 54.0643 75.269 50.3333 70.6667 50.3333C66.0643 50.3333 62.3333 54.0643 62.3333 58.6667C62.3333 63.269 66.0643 67 70.6667 67ZM70.6667 65.3333C74.3486 65.3333 77.3333 62.3486 77.3333 58.6667C77.3333 54.9848 74.3486 52 70.6667 52C66.9848 52 64 54.9848 64 58.6667C64 62.3486 66.9848 65.3333 70.6667 65.3333Z" fill="white"/>
</svg>
