<svg width="96" height="96" viewBox="0 0 96 96" fill="none" xmlns="http://www.w3.org/2000/svg">
<path fill-rule="evenodd" clip-rule="evenodd" d="M13.6363 26.728C12.7326 27.6318 12.7326 29.097 13.6363 30.0008C14.54 30.9046 16.0053 30.9046 16.909 30.0008L18.5464 28.3634L26.7272 36.5442L20.1818 43.0898C19.278 43.9936 19.278 45.4588 20.1818 46.3626C21.0854 47.2664 22.5506 47.2664 23.4544 46.3626L26.7264 43.0904L54.5454 70.91C57.9002 74.265 62.803 75.1292 66.955 73.5022L69.2722 75.8194C70.484 77.0312 72.2004 77.4306 73.7448 77.0176L79.091 82.364C79.9946 83.2678 81.4598 83.2678 82.3636 82.364C83.2674 81.4602 83.2674 79.995 82.3636 79.0912L77.0166 73.744C77.4284 72.2002 77.0288 70.485 75.8178 69.2738L73.5008 66.9568C75.128 62.8044 74.264 57.9012 70.909 54.546L43.09 26.7264L46.3634 23.453C47.2672 22.5492 47.2672 21.084 46.3634 20.1802C45.4598 19.2765 43.9944 19.2765 43.0908 20.1802L36.5452 26.7258L28.3646 18.545L29.9998 16.9096C30.9036 16.0058 30.9036 14.5406 29.9998 13.6368C29.0962 12.733 27.631 12.733 26.7272 13.6368L13.6363 26.728ZM33.7168 29.5544L25.5362 21.3734L21.3748 25.5348L29.5556 33.7158L33.7168 29.5544ZM40.2616 29.555L29.5548 40.262L38.3668 49.0742L49.0736 38.367L40.2616 29.555ZM41.6394 52.347L46.5486 57.2562C49.3756 60.0832 47.2926 58.0002 49.8214 60.529L53.0932 63.801C55.2926 66.0002 54.7906 65.4984 56.366 67.0738L57.3738 68.0816C59.57 70.2778 62.7798 70.8426 65.4974 69.776L69.775 65.4984C70.8416 62.7806 70.2768 59.5708 68.0806 57.3746L52.3462 41.6398L41.6394 52.347ZM73.0448 72.1658C73.028 72.1436 73.0094 72.1224 72.9894 72.1024L71.3412 70.454C71.202 70.609 71.058 70.761 70.909 70.91C70.7598 71.0592 70.6076 71.2034 70.4524 71.3428L72.1006 72.991C72.121 73.0112 72.1424 73.0298 72.1646 73.0468C72.2656 72.8674 72.3926 72.6984 72.5454 72.5456C72.6978 72.3934 72.866 72.2666 73.0448 72.1658Z" fill="#15614F"/>
<path d="M18.5464 25.5344L17.1322 26.9486L15.4948 28.5862C15.3721 28.7088 15.1732 28.7088 15.0505 28.5862C14.9278 28.4634 14.9278 28.2644 15.0505 28.1416L28.1414 15.0505C28.264 14.9278 28.463 14.9278 28.5856 15.0505C28.7084 15.1732 28.7084 15.3722 28.5856 15.4949L26.9504 17.1303L25.5362 18.5445L24.122 19.9587L19.9606 24.1202L18.5464 25.5344ZM28.1414 37.958L29.5556 36.5438L30.9698 35.1294L35.1312 30.968L36.5452 29.5538L37.9594 28.1396L44.505 21.594C44.6276 21.4712 44.8266 21.4712 44.9492 21.594C45.072 21.7166 45.072 21.9156 44.9492 22.0384L41.6758 25.3118L40.2616 26.726L38.8474 28.1402L28.1406 38.8474L26.7264 40.2616L25.3122 41.6758L22.0402 44.948C21.9176 45.0706 21.7186 45.0706 21.596 44.948C21.4732 44.8252 21.4732 44.6262 21.596 44.5036L28.1414 37.958ZM43.7202 57.2562L38.4904 52.0262L38.7636 51.7532L36.9494 50.3654C36.6786 50.1582 36.4158 49.9342 36.1624 49.6934C36.583 50.093 37.0322 50.448 37.5036 50.7578L38.8646 51.6522L40.016 50.5006L50.5004 40.0158L51.652 38.8644L50.7578 37.5034C50.451 37.0366 50.0998 36.5916 49.705 36.1746C49.9414 36.4242 50.1614 36.6828 50.3652 36.9492L51.753 38.7634L52.0256 38.4908L69.4946 55.96C72.2676 58.733 72.9862 62.7878 71.6386 66.2266L71.161 67.445L72.0864 68.3704L74.4034 70.6876C75.0894 71.3736 75.3196 72.3456 75.0842 73.228L74.787 74.3422L75.6024 75.1578L80.9494 80.505C81.0722 80.6276 81.0722 80.8266 80.9494 80.9494C80.8268 81.072 80.6278 81.072 80.5052 80.9494L75.159 75.603L74.343 74.787L73.2282 75.085C72.3454 75.3212 71.3728 75.0912 70.6866 74.4048L68.3694 72.0876L67.444 71.1622L66.2254 71.6398C62.9562 72.9208 59.1304 72.3344 56.3784 69.8906L61.498 64.771C63.1826 63.0862 63.1826 60.3546 61.498 58.6698C59.8132 56.985 57.0816 56.985 55.3968 58.6698L50.2654 63.8014L49.8214 63.3574L54.953 58.2256C56.6378 56.5408 56.6378 53.8092 54.953 52.1244C53.2682 50.4396 50.5366 50.4396 48.8518 52.1244L43.7202 57.2562Z" fill="#15614F"/>
<path d="M28.1414 15.0505L15.0505 28.1416C14.9278 28.2644 14.9278 28.4634 15.0505 28.5862C15.1732 28.7088 15.3721 28.7088 15.4948 28.5862L17.1322 26.9486L18.5464 25.5344L19.9606 24.1202L24.122 19.9587L25.5362 18.5445L26.9504 17.1303L28.5856 15.4949C28.7084 15.3722 28.7084 15.1732 28.5856 15.0505C28.463 14.9278 28.264 14.9278 28.1414 15.0505ZM28.1414 15.0505L26.7272 13.6363M61.498 58.6698C63.1826 60.3546 63.1826 63.0862 61.498 64.771L56.3784 69.8906C59.1304 72.3344 62.9562 72.9208 66.2254 71.6398L67.444 71.1622L68.3694 72.0876L70.6866 74.4048C71.3728 75.0912 72.3454 75.3212 73.2282 75.085L74.343 74.787L75.159 75.603L80.5052 80.9494C80.6278 81.072 80.8268 81.072 80.9494 80.9494C81.0722 80.8266 81.0722 80.6276 80.9494 80.505L75.6024 75.1578L74.787 74.3422L75.0842 73.228C75.3196 72.3456 75.0894 71.3736 74.4034 70.6876L72.0864 68.3704L71.161 67.445L71.6386 66.2266C72.9862 62.7878 72.2676 58.733 69.4946 55.96L52.0256 38.4908L51.753 38.7634L50.3652 36.9492C50.1614 36.6828 49.9414 36.4242 49.705 36.1746C50.0998 36.5916 50.451 37.0366 50.7578 37.5034L51.652 38.8644L50.5004 40.0158L40.016 50.5006L38.8646 51.6522L37.5036 50.7578C37.0322 50.448 36.583 50.093 36.1624 49.6934C36.4158 49.9342 36.6786 50.1582 36.9494 50.3654L38.7636 51.7532L38.4904 52.0262L43.7202 57.2562L48.8518 52.1244C50.5366 50.4396 53.2682 50.4396 54.953 52.1244C56.6378 53.8092 56.6378 56.5408 54.953 58.2256L49.8214 63.3574L50.2654 63.8014L55.3968 58.6698C57.0816 56.985 59.8132 56.985 61.498 58.6698ZM61.498 58.6698L60.0838 60.084M28.1414 37.958L29.5556 36.5438L30.9698 35.1294L35.1312 30.968L36.5452 29.5538L37.9594 28.1396L44.505 21.594C44.6276 21.4712 44.8266 21.4712 44.9492 21.594C45.072 21.7166 45.072 21.9156 44.9492 22.0384L41.6758 25.3118L40.2616 26.726L38.8474 28.1402L28.1406 38.8474L26.7264 40.2616L25.3122 41.6758L22.0402 44.948C21.9176 45.0706 21.7186 45.0706 21.596 44.948C21.4732 44.8252 21.4732 44.6262 21.596 44.5036L28.1414 37.958Z" stroke="#15614F" stroke-width="2"/>
</svg>
