<svg width="96" height="96" viewBox="0 0 96 96" fill="none" xmlns="http://www.w3.org/2000/svg">
<path d="M76 60.5252C76 75.6992 63.464 88 48 88C32.536 88 20 75.6992 20 60.5252C20 36.4848 48 8 48 8C48 8 76 36.4848 76 60.5252Z" fill="white"/>
<path fill-rule="evenodd" clip-rule="evenodd" d="M48 84C61.3266 84 72 73.419 72 60.5252C72 49.8116 65.6446 37.5542 58.7096 27.522C55.3104 22.6046 51.9036 18.4067 49.345 15.4376C48.864 14.8796 48.4138 14.3658 48 13.8996C47.5862 14.3658 47.136 14.8796 46.655 15.4376C44.0964 18.4067 40.6896 22.6046 37.2904 27.522C30.3554 37.5542 24 49.8116 24 60.5252C24 73.419 34.6734 84 48 84ZM45.2794 10.94C38.2448 18.8177 20 41.1194 20 60.5252C20 75.6992 32.536 88 48 88C63.464 88 76 75.6992 76 60.5252C76 41.1194 57.7552 18.8177 50.7206 10.94C49.0406 9.05866 48 8 48 8C48 8 46.9594 9.05866 45.2794 10.94Z" fill="white"/>
</svg>
