<svg width="96" height="96" viewBox="0 0 96 96" fill="none" xmlns="http://www.w3.org/2000/svg">
<path fill-rule="evenodd" clip-rule="evenodd" d="M38 8C36.8954 8 36 8.89544 36 10V16C36 17.1046 36.8954 18 38 18H40V22.5458C38.8348 22.9576 38 24.0688 38 25.375V78C38 83.5228 42.4772 88 48 88C53.5228 88 58 83.5228 58 78V25.375C58 24.0688 57.1652 22.9576 56 22.5458V18H58C59.1046 18 60 17.1046 60 16V10C60 8.89544 59.1046 8 58 8H38ZM44 23.375V18H52V23.375C52 24.6812 52.8348 25.7924 54 26.2042V36H42V26.2042C43.1652 25.7924 44 24.6812 44 23.375Z" fill="#15614F"/>
</svg>
