<svg width="48" height="48" viewBox="0 0 48 48" fill="none" xmlns="http://www.w3.org/2000/svg">
<path fill-rule="evenodd" clip-rule="evenodd" d="M16 7.15218C16 6.29929 16.5409 5.54023 17.347 5.26178L20.3654 4.21919C20.7855 4.07408 21.2269 4 21.6714 4H26.3286C26.7731 4 27.2145 4.07408 27.6346 4.21919L30.653 5.26178C31.4591 5.54023 32 6.29929 32 7.15218V11H30.9091C30.9093 11.2118 30.8424 11.4253 30.704 11.6067L29.1944 13.5845L34.5564 15.3408C36.6107 16.0137 38 17.9306 38 20.0924V38.9999C38 41.7614 35.7614 43.9999 33 43.9999H15C12.2386 43.9999 10 41.7614 10 38.9999V20.0924C10 17.9306 11.3893 16.0137 13.4436 15.3408L18.8056 13.5845L17.296 11.6067C17.1576 11.4253 17.0907 11.2118 17.0909 11H16V7.15218ZM19.349 11H28.651L27.6046 12.3711C26.7693 13.4654 27.2636 15.0567 28.5718 15.4852L33.9338 17.2414C35.1664 17.6452 36 18.7954 36 20.0924V38.9999C36 40.6568 34.6569 41.9999 33 41.9999H15C13.3431 41.9999 12 40.6568 12 38.9999V20.0924C12 18.7954 12.8336 17.6452 14.0662 17.2414L19.4282 15.4852C20.7364 15.0567 21.2307 13.4654 20.3954 12.3711L19.349 11Z" fill="#15614F"/>
<path d="M29.0598 26.384C29.0598 27.0347 28.9105 27.632 28.6118 28.176C28.3131 28.7093 27.8545 29.1413 27.2358 29.472C26.6171 29.8027 25.8491 29.968 24.9318 29.968H23.2358V34H20.4998V22.768H24.9318C25.8278 22.768 26.5851 22.9227 27.2038 23.232C27.8225 23.5413 28.2865 23.968 28.5958 24.512C28.9051 25.056 29.0598 25.68 29.0598 26.384ZM24.7238 27.792C25.2465 27.792 25.6358 27.6693 25.8918 27.424C26.1478 27.1787 26.2758 26.832 26.2758 26.384C26.2758 25.936 26.1478 25.5893 25.8918 25.344C25.6358 25.0987 25.2465 24.976 24.7238 24.976H23.2358V27.792H24.7238Z" fill="#15614F"/>
</svg>
