<svg width="46" height="72" viewBox="0 0 46 72" fill="none" xmlns="http://www.w3.org/2000/svg">
<path fill-rule="evenodd" clip-rule="evenodd" d="M5.11111 0C2.28824 0 0 2.28824 0 5.11111V66.4444C0 69.2673 2.28824 71.5556 5.11111 71.5556H40.8889C43.7118 71.5556 46 69.2673 46 66.4444V5.11111C46 2.28824 43.7118 0 40.8889 0H5.11111ZM40.8889 5.11111H5.11111V28.1111H40.8889V5.11111ZM16.0302 37.4041C16.0302 39.7136 14.158 41.5858 11.8486 41.5858C9.53887 41.5858 7.66667 39.7136 7.66667 37.4041C7.66667 35.0944 9.53887 33.2222 11.8486 33.2222C14.158 33.2222 16.0302 35.0944 16.0302 37.4041ZM23 41.5858C25.3095 41.5858 27.1819 39.7136 27.1819 37.4041C27.1819 35.0944 25.3095 33.2222 23 33.2222C20.6905 33.2222 18.8181 35.0944 18.8181 37.4041C18.8181 39.7136 20.6905 41.5858 23 41.5858ZM38.3333 37.4041C38.3333 39.7136 36.4611 41.5858 34.1514 41.5858C31.842 41.5858 29.9698 39.7136 29.9698 37.4041C29.9698 35.0944 31.842 33.2222 34.1514 33.2222C36.4611 33.2222 38.3333 35.0944 38.3333 37.4041ZM11.8486 52.7375C14.158 52.7375 16.0302 50.865 16.0302 48.5556C16.0302 46.2461 14.158 44.3736 11.8486 44.3736C9.53887 44.3736 7.66667 46.2461 7.66667 48.5556C7.66667 50.865 9.53887 52.7375 11.8486 52.7375ZM27.1819 48.5556C27.1819 50.865 25.3095 52.7375 23 52.7375C20.6905 52.7375 18.8181 50.865 18.8181 48.5556C18.8181 46.2461 20.6905 44.3736 23 44.3736C25.3095 44.3736 27.1819 46.2461 27.1819 48.5556ZM34.1514 52.7375C36.4611 52.7375 38.3333 50.865 38.3333 48.5556C38.3333 46.2461 36.4611 44.3736 34.1514 44.3736C31.842 44.3736 29.9698 46.2461 29.9698 48.5556C29.9698 50.865 31.842 52.7375 34.1514 52.7375ZM38.3333 59.707C38.3333 62.0167 36.4611 63.8889 34.1514 63.8889C31.842 63.8889 29.9698 62.0167 29.9698 59.707C29.9698 57.3975 31.842 55.5253 34.1514 55.5253C36.4611 55.5253 38.3333 57.3975 38.3333 59.707ZM11.8486 55.5253C9.53887 55.5253 7.66667 57.3975 7.66667 59.707C7.66667 62.0167 9.53887 63.8889 11.8486 63.8889H23C25.3095 63.8889 27.1819 62.0167 27.1819 59.707C27.1819 57.3975 25.3095 55.5253 23 55.5253H11.8486Z" fill="#15614F"/>
</svg>
