<svg width="96" height="96" viewBox="0 0 96 96" fill="none" xmlns="http://www.w3.org/2000/svg">
<path d="M48 34.7755C54.075 34.7755 59 29.9512 59 24C59 18.0488 54.075 13.2245 48 13.2245C41.9248 13.2245 37 18.0488 37 24C37 29.9512 41.9248 34.7755 48 34.7755Z" fill="#15614F"/>
<path d="M57.9998 45.621C61.4048 45.1386 64.991 44.4147 68.9604 43.4527C71.105 42.9332 72.4134 40.8088 71.8828 38.7082C71.3524 36.6074 69.184 35.3257 67.0394 35.8454C59.4142 37.6931 53.667 38.5228 48.0148 38.5019C42.351 38.4807 36.5888 37.605 28.9168 35.835C26.7666 35.339 24.6128 36.6444 24.1064 38.7509C23.6 40.8572 24.9326 42.9671 27.083 43.4631C31.0314 44.3739 34.604 45.0834 37.9998 45.5696V50.449H57.9998V45.621Z" fill="#15614F"/>
<path fill-rule="evenodd" clip-rule="evenodd" d="M53.3586 64.1233C56.859 62.5963 57.9998 59.4095 57.9998 58.1689V54.3673H37.9998V58.1689C37.9998 59.4095 39.1406 62.5963 42.641 64.1233C43.0416 64.298 43.4918 64.5171 43.8964 64.7138L44.1346 64.8296C44.632 65.0704 45.1132 65.298 45.5998 65.5C46.6148 65.9212 47.4066 66.1224 47.9998 66.1224C48.5932 66.1224 49.3848 65.9212 50.3998 65.5C50.8866 65.298 51.3678 65.0704 51.865 64.8296L52.1032 64.714M53.3586 64.1233C52.9582 64.298 52.5078 64.5171 52.1032 64.714L53.3586 64.1233Z" fill="#15614F"/>
<path d="M40.8696 67.8003C38.5052 66.7476 36.917 65.1566 35.9618 63.5745C32.8586 66.2206 31.1496 69.5479 31.1496 73.9386C31.1496 75.6899 31.532 78.3178 32.526 80.4474C33.5438 82.6284 34.9102 83.7551 36.6372 83.7551C38.4904 83.7551 40.059 82.3658 40.059 80.5779C40.059 79.7825 39.7154 79.0303 39.1718 77.9122L39.1358 77.8384C38.6432 76.8266 37.993 75.4911 37.993 73.9386C37.993 72.2404 38.8528 70.4379 39.8532 68.9787C40.1746 68.5103 40.5144 68.129 40.8696 67.8003Z" fill="#15614F"/>
<path d="M55.1304 67.7999C57.4946 66.7474 59.0828 65.1564 60.0382 63.5743C63.1414 66.2202 64.8506 69.5477 64.8506 73.9386C64.8506 75.6899 64.468 78.3178 63.4742 80.4474C62.4564 82.6284 61.0898 83.7551 59.3628 83.7551C57.5096 83.7551 55.941 82.3658 55.941 80.5779C55.941 79.7825 56.2846 79.0303 56.8284 77.9122L56.8644 77.8384C57.3568 76.8266 58.007 75.4911 58.007 73.9386C58.007 72.2404 57.1474 70.4379 56.1468 68.9787C55.8254 68.5101 55.4854 68.1289 55.1304 67.7999Z" fill="#15614F"/>
</svg>
