<svg width="96" height="96" viewBox="0 0 96 96" fill="none" xmlns="http://www.w3.org/2000/svg">
<path d="M48 24C50.2092 24 52 22.2092 52 20C52 17.7909 50.2092 16 48 16C45.7908 16 44 17.7909 44 20C44 22.2092 45.7908 24 48 24Z" fill="#15614F"/>
<path fill-rule="evenodd" clip-rule="evenodd" d="M67.9648 76.0958H65.9824V80.0958H57.9648V88.0958H53.9648V80.0958H45.9814C45.9304 82.2608 44.1596 84 41.9824 84H37.9824C35.8052 84 34.0344 82.2608 33.9836 80.0958H29.9824V76.0958H27.9648C23.5466 76.0958 19.9648 72.514 19.9648 68.0958V20.3244C19.9648 15.9061 23.5466 12.3244 27.9648 12.3244H39.9648L42.2288 9.99564C45.3702 6.76448 50.5594 6.76448 53.7008 9.99564L55.9648 12.3244H67.9648C72.3832 12.3244 75.9648 15.9061 75.9648 20.3244V68.0958C75.9648 72.514 72.3832 76.0958 67.9648 76.0958ZM53.0968 15.1127C53.85 15.8873 54.8844 16.3244 55.9648 16.3244H67.9648C70.174 16.3244 71.9648 18.1152 71.9648 20.3244V23H63.9824V27H71.9648V33H63.9824V37H71.9648V43H63.9824V47H71.9648V56.2002C69.1466 53.2772 63.5178 49.4582 55.9824 54.34C48.0274 59.4936 40.746 59.1906 32.3664 58.8416C29.6966 58.7304 26.915 58.6146 23.9648 58.6692V20.3244C23.9648 18.1152 25.7558 16.3244 27.9648 16.3244H39.9648C41.0452 16.3244 42.0798 15.8873 42.8328 15.1127L45.0968 12.784C46.6676 11.1684 49.2622 11.1684 50.8328 12.784L53.0968 15.1127Z" fill="#15614F"/>
</svg>
