<svg width="47" height="72" viewBox="0 0 47 72" fill="none" xmlns="http://www.w3.org/2000/svg">
<g clip-path="url(#clip0_61_122)">
<path fill-rule="evenodd" clip-rule="evenodd" d="M5.16517 0C2.3354 0 0.0415649 2.28824 0.0415649 5.11111V66.4444C0.0415649 69.2673 2.3354 71.5556 5.16517 71.5556H41.0304C43.8602 71.5556 46.154 69.2673 46.154 66.4444V5.11111C46.154 2.28824 43.8602 0 41.0304 0H5.16517ZM41.0304 5.11111H5.16517V28.1111H41.0304V5.11111ZM16.111 37.4041C16.111 39.7136 14.2342 41.5858 11.9191 41.5858C9.60376 41.5858 7.72698 39.7136 7.72698 37.4041C7.72698 35.0944 9.60376 33.2222 11.9191 33.2222C14.2342 33.2222 16.111 35.0944 16.111 37.4041ZM23.0978 41.5858C25.4129 41.5858 27.2899 39.7136 27.2899 37.4041C27.2899 35.0944 25.4129 33.2222 23.0978 33.2222C20.7827 33.2222 18.9057 35.0944 18.9057 37.4041C18.9057 39.7136 20.7827 41.5858 23.0978 41.5858ZM38.4686 37.4041C38.4686 39.7136 36.5918 41.5858 34.2765 41.5858C31.9614 41.5858 30.0846 39.7136 30.0846 37.4041C30.0846 35.0944 31.9614 33.2222 34.2765 33.2222C36.5918 33.2222 38.4686 35.0944 38.4686 37.4041ZM11.9191 52.7375C14.2342 52.7375 16.111 50.865 16.111 48.5556C16.111 46.2461 14.2342 44.3736 11.9191 44.3736C9.60376 44.3736 7.72698 46.2461 7.72698 48.5556C7.72698 50.865 9.60376 52.7375 11.9191 52.7375ZM27.2899 48.5556C27.2899 50.865 25.4129 52.7375 23.0978 52.7375C20.7827 52.7375 18.9057 50.865 18.9057 48.5556C18.9057 46.2461 20.7827 44.3736 23.0978 44.3736C25.4129 44.3736 27.2899 46.2461 27.2899 48.5556ZM34.2765 52.7375C36.5918 52.7375 38.4686 50.865 38.4686 48.5556C38.4686 46.2461 36.5918 44.3736 34.2765 44.3736C31.9614 44.3736 30.0846 46.2461 30.0846 48.5556C30.0846 50.865 31.9614 52.7375 34.2765 52.7375ZM38.4686 59.707C38.4686 62.0167 36.5918 63.8889 34.2765 63.8889C31.9614 63.8889 30.0846 62.0167 30.0846 59.707C30.0846 57.3975 31.9614 55.5253 34.2765 55.5253C36.5918 55.5253 38.4686 57.3975 38.4686 59.707ZM11.9191 55.5253C9.60376 55.5253 7.72698 57.3975 7.72698 59.707C7.72698 62.0167 9.60376 63.8889 11.9191 63.8889H23.0978C25.4129 63.8889 27.2899 62.0167 27.2899 59.707C27.2899 57.3975 25.4129 55.5253 23.0978 55.5253H11.9191Z" fill="white"/>
</g>
<defs>
<clipPath id="clip0_61_122">
<rect width="46.1125" height="72" fill="white" transform="translate(0.0415649)"/>
</clipPath>
</defs>
</svg>
