<svg width="98" height="96" viewBox="0 0 98 96" fill="none" xmlns="http://www.w3.org/2000/svg">
<path fill-rule="evenodd" clip-rule="evenodd" d="M56.9486 8H38.9046V88H56.9486V80H48.9291V76H56.9486V70H52.9388V66H56.9486V60H52.9388V56H56.9486V50H48.9291V46H56.9486V40H52.9388V36H56.9486V30H52.9388V26H56.9486V20H48.9291V16H56.9486V8Z" fill="white"/>
<path fill-rule="evenodd" clip-rule="evenodd" d="M66.9731 56C64.7585 56 62.9633 57.7908 62.9633 60V70H76.9975V60C76.9975 57.7908 75.2024 56 72.9878 56H66.9731ZM76.9975 74H62.9633V84C62.9633 86.2092 64.7585 88 66.9731 88H72.9878C75.2024 88 76.9975 86.2092 76.9975 84V74Z" fill="white"/>
<path fill-rule="evenodd" clip-rule="evenodd" d="M66.9731 60V66H72.9878V60H66.9731ZM76.9975 60C76.9975 57.7908 75.2024 56 72.9878 56H66.9731C64.7585 56 62.9633 57.7908 62.9633 60V70H76.9975V60ZM62.9633 74H76.9975V84C76.9975 86.2092 75.2024 88 72.9878 88H66.9731C64.7585 88 62.9633 86.2092 62.9633 84V74ZM72.9878 78H66.9731V84H72.9878V78Z" fill="white"/>
<path fill-rule="evenodd" clip-rule="evenodd" d="M26.8753 22C23.5534 22 20.8606 24.6862 20.8606 28V34H32.89V28C32.89 24.6862 30.1972 22 26.8753 22ZM32.89 38H20.8606V80L26.8753 88L32.89 80V38Z" fill="white"/>
</svg>
