<svg width="97" height="96" viewBox="0 0 97 96" fill="none" xmlns="http://www.w3.org/2000/svg">
<path fill-rule="evenodd" clip-rule="evenodd" d="M18.2787 12C14.9569 12 12.2641 14.6863 12.2641 18V78C12.2641 81.3138 14.9569 84 18.2787 84H78.4254C81.7473 84 84.4401 81.3138 84.4401 78V18C84.4401 14.6863 81.7473 12 78.4254 12H18.2787ZM26.2983 34C26.2983 32.8954 27.1959 32 28.3032 32H42.3374C43.4447 32 44.3423 32.8954 44.3423 34V38C44.3423 39.1046 43.4447 40 42.3374 40H40.3325V48.0952L48.8154 61.796C52.1155 67.1258 48.2723 74 41.9924 74H28.6482C22.3683 74 18.5251 67.1258 21.8252 61.796L30.3081 48.0952V40H28.3032C27.1959 40 26.2983 39.1046 26.2983 38V34Z" fill="white"/>
<path d="M61.3034 44.7567C61.7299 44.5813 61.9332 44.0943 61.7575 43.6687C61.5816 43.2432 61.0934 43.0404 60.6668 43.2158L54.1132 45.91C53.6866 46.0853 53.4833 46.5724 53.6591 46.998C53.8349 47.4235 54.3232 47.6263 54.7497 47.4509L61.3034 44.7567Z" fill="#15614F"/>
<path fill-rule="evenodd" clip-rule="evenodd" d="M66.062 45.3333C66.062 49.9357 62.3219 53.6667 57.7082 53.6667C53.0947 53.6667 49.3546 49.9357 49.3546 45.3333C49.3546 40.731 53.0947 37 57.7082 37C62.3219 37 66.062 40.731 66.062 45.3333ZM64.3912 45.3333C64.3912 49.0152 61.3991 52 57.7082 52C54.0173 52 51.0253 49.0152 51.0253 45.3333C51.0253 41.6514 54.0173 38.6667 57.7082 38.6667C61.3991 38.6667 64.3912 41.6514 64.3912 45.3333Z" fill="#15614F"/>
<path d="M74.3411 60.2709C74.7908 60.3741 75.239 60.0941 75.3424 59.6455C75.4458 59.197 75.1651 58.7497 74.7154 58.6467L67.8074 57.0624C67.3577 56.9592 66.9094 57.2392 66.8059 57.6878C66.7027 58.1363 66.9834 58.5836 67.433 58.6867L74.3411 60.2709Z" fill="#15614F"/>
<path fill-rule="evenodd" clip-rule="evenodd" d="M71.0742 67C75.6878 67 79.4279 63.269 79.4279 58.6667C79.4279 54.0643 75.6878 50.3333 71.0742 50.3333C66.4606 50.3333 62.7205 54.0643 62.7205 58.6667C62.7205 63.269 66.4606 67 71.0742 67ZM71.0742 65.3333C74.7651 65.3333 77.7571 62.3486 77.7571 58.6667C77.7571 54.9848 74.7651 52 71.0742 52C67.3833 52 64.3912 54.9848 64.3912 58.6667C64.3912 62.3486 67.3833 65.3333 71.0742 65.3333Z" fill="#15614F"/>
</svg>
