<svg width="97" height="100" viewBox="0 0 97 100" fill="none" xmlns="http://www.w3.org/2000/svg">
<path d="M76.8899 62.9923C76.8899 78.7848 64.3233 91.587 48.8215 91.587C33.3196 91.587 20.753 78.7848 20.753 62.9923C20.753 37.972 48.8215 8.32611 48.8215 8.32611C48.8215 8.32611 76.8899 37.972 76.8899 62.9923Z" fill="white"/>
<path fill-rule="evenodd" clip-rule="evenodd" d="M48.8215 87.4239C62.1806 87.4239 72.8801 76.4116 72.8801 62.9923C72.8801 51.842 66.5092 39.085 59.5572 28.6438C56.1497 23.526 52.7346 19.157 50.1697 16.0669C49.6876 15.4861 49.2363 14.9514 48.8215 14.4662C48.4066 14.9514 47.9553 15.4861 47.4732 16.0669C44.9083 19.157 41.4932 23.526 38.0857 28.6438C31.1337 39.085 24.7628 51.842 24.7628 62.9923C24.7628 76.4116 35.4623 87.4239 48.8215 87.4239ZM46.0942 11.3859C39.0424 19.5847 20.753 42.7955 20.753 62.9923C20.753 78.7848 33.3196 91.587 48.8215 91.587C64.3233 91.587 76.8899 78.7848 76.8899 62.9923C76.8899 42.7955 58.6005 19.5847 51.5487 11.3859C49.8646 9.42792 48.8215 8.32611 48.8215 8.32611C48.8215 8.32611 47.7783 9.42792 46.0942 11.3859Z" fill="white"/>
</svg>
