<svg width="97" height="96" viewBox="0 0 97 96" fill="none" xmlns="http://www.w3.org/2000/svg">
<path fill-rule="evenodd" clip-rule="evenodd" d="M38.247 8C37.1397 8 36.2421 8.89544 36.2421 10V16C36.2421 17.1046 37.1397 18 38.247 18H40.2519V22.5458C39.0838 22.9576 38.247 24.0688 38.247 25.375V78C38.247 83.5228 42.7351 88 48.2714 88C53.8077 88 58.2959 83.5228 58.2959 78V25.375C58.2959 24.0688 57.459 22.9576 56.291 22.5458V18H58.2959C59.4032 18 60.3008 17.1046 60.3008 16V10C60.3008 8.89544 59.4032 8 58.2959 8H38.247ZM44.2616 23.375V18H52.2812V23.375C52.2812 24.6812 53.118 25.7924 54.2861 26.2042V36H42.2567V26.2042C43.4248 25.7924 44.2616 24.6812 44.2616 23.375Z" fill="white"/>
</svg>
