<svg width="97" height="96" viewBox="0 0 97 96" fill="none" xmlns="http://www.w3.org/2000/svg">
<path d="M48.6944 34.7755C54.7842 34.7755 59.7213 29.9512 59.7213 24C59.7213 18.0488 54.7842 13.2245 48.6944 13.2245C42.6043 13.2245 37.6675 18.0488 37.6675 24C37.6675 29.9512 42.6043 34.7755 48.6944 34.7755Z" fill="white"/>
<path d="M58.7186 45.621C62.132 45.1386 65.7269 44.4147 69.706 43.4527C71.8559 42.9332 73.1675 40.8088 72.6356 38.7082C72.1039 36.6074 69.9302 35.3257 67.7803 35.8454C60.1365 37.6931 54.3752 38.5228 48.7092 38.5019C43.0316 38.4807 37.2553 37.605 29.5645 35.835C27.4091 35.339 25.25 36.6444 24.7424 38.7509C24.2347 40.8572 25.5706 42.9671 27.7262 43.4631C31.6843 44.3739 35.2656 45.0834 38.6697 45.5696V50.449H58.7186V45.621Z" fill="white"/>
<path fill-rule="evenodd" clip-rule="evenodd" d="M54.0661 64.1233C57.575 62.5963 58.7186 59.4095 58.7186 58.1689V54.3673H38.6697V58.1689C38.6697 59.4095 39.8133 62.5963 43.3223 64.1233C43.7239 64.298 44.1752 64.5171 44.5808 64.7138L44.8195 64.8296C45.3182 65.0704 45.8005 65.298 46.2883 65.5C47.3058 65.9212 48.0995 66.1224 48.6942 66.1224C49.289 66.1224 50.0826 65.9212 51.1001 65.5C51.588 65.298 52.0704 65.0704 52.5688 64.8296L52.8076 64.714M54.0661 64.1233C53.6647 64.298 53.2132 64.5171 52.8076 64.714L54.0661 64.1233Z" fill="white"/>
<path d="M41.5466 67.8003C39.1764 66.7476 37.5843 65.1566 36.6268 63.5745C33.516 66.2206 31.8028 69.5479 31.8028 73.9386C31.8028 75.6899 32.1861 78.3178 33.1826 80.4474C34.2028 82.6284 35.5726 83.7551 37.3038 83.7551C39.1615 83.7551 40.734 82.3658 40.734 80.5779C40.734 79.7825 40.3895 79.0303 39.8446 77.9122L39.8085 77.8384C39.3147 76.8266 38.6629 75.4911 38.6629 73.9386C38.6629 72.2404 39.5248 70.4379 40.5277 68.9787C40.8499 68.5103 41.1905 68.129 41.5466 67.8003Z" fill="white"/>
<path d="M55.8422 67.7999C58.2122 66.7474 59.8043 65.1564 60.762 63.5743C63.8728 66.2202 65.5862 69.5477 65.5862 73.9386C65.5862 75.6899 65.2027 78.3178 64.2064 80.4474C63.1861 82.6284 61.8162 83.7551 60.085 83.7551C58.2272 83.7551 56.6548 82.3658 56.6548 80.5779C56.6548 79.7825 56.9992 79.0303 57.5444 77.9122L57.5805 77.8384C58.0741 76.8266 58.7259 75.4911 58.7259 73.9386C58.7259 72.2404 57.8642 70.4379 56.8611 68.9787C56.5389 68.5101 56.1981 68.1289 55.8422 67.7999Z" fill="white"/>
</svg>
