<svg width="49" height="48" viewBox="0 0 49 48" fill="none" xmlns="http://www.w3.org/2000/svg">
<path fill-rule="evenodd" clip-rule="evenodd" d="M16.0856 7.15218C16.0856 6.29929 16.6278 5.54023 17.4359 5.26178L20.4616 4.21919C20.8828 4.07408 21.3252 4 21.7708 4H26.4394C26.885 4 27.3275 4.07408 27.7486 4.21919L30.7744 5.26178C31.5825 5.54023 32.1247 6.29929 32.1247 7.15218V11H31.0311C31.0313 11.2118 30.9643 11.4253 30.8255 11.6067L29.3122 13.5845L34.6873 15.3408C36.7467 16.0137 38.1394 17.9306 38.1394 20.0924V38.9999C38.1394 41.7614 35.8953 43.9999 33.1271 43.9999H15.0831C12.315 43.9999 10.0709 41.7614 10.0709 38.9999V20.0924C10.0709 17.9306 11.4636 16.0137 13.5229 15.3408L18.898 13.5845L17.3847 11.6067C17.246 11.4253 17.1789 11.2118 17.1791 11H16.0856V7.15218ZM19.4428 11H28.7675L27.7185 12.3711C26.8812 13.4654 27.3767 15.0567 28.6881 15.4852L34.0632 17.2414C35.2988 17.6452 36.1345 18.7954 36.1345 20.0924V38.9999C36.1345 40.6568 34.7881 41.9999 33.1271 41.9999H15.0831C13.4222 41.9999 12.0758 40.6568 12.0758 38.9999V20.0924C12.0758 18.7954 12.9114 17.6452 14.147 17.2414L19.5221 15.4852C20.8335 15.0567 21.3291 13.4654 20.4917 12.3711L19.4428 11Z" fill="white"/>
<path d="M29.1773 26.384C29.1773 27.0347 29.0276 27.632 28.7282 28.176C28.4288 28.7093 27.9691 29.1413 27.3488 29.472C26.7286 29.8027 25.9588 29.968 25.0392 29.968H23.3391V34H20.5964V22.768H25.0392C25.9374 22.768 26.6966 22.9227 27.3168 23.232C27.937 23.5413 28.4021 23.968 28.7122 24.512C29.0222 25.056 29.1773 25.68 29.1773 26.384ZM24.8307 27.792C25.3547 27.792 25.7449 27.6693 26.0016 27.424C26.2582 27.1787 26.3865 26.832 26.3865 26.384C26.3865 25.936 26.2582 25.5893 26.0016 25.344C25.7449 25.0987 25.3547 24.976 24.8307 24.976H23.3391V27.792H24.8307Z" fill="white"/>
</svg>
