<svg width="97" height="96" viewBox="0 0 97 96" fill="none" xmlns="http://www.w3.org/2000/svg">
<path d="M48.5868 24C50.8014 24 52.5966 22.2092 52.5966 20C52.5966 17.7909 50.8014 16 48.5868 16C46.3722 16 44.5771 17.7909 44.5771 20C44.5771 22.2092 46.3722 24 48.5868 24Z" fill="white"/>
<path fill-rule="evenodd" clip-rule="evenodd" d="M68.6005 76.0958H66.6132V80.0958H58.576V88.0958H54.5662V80.0958H46.5633C46.5122 82.2608 44.7371 84 42.5545 84H38.5447C36.3622 84 34.5871 82.2608 34.5362 80.0958H30.5252V76.0958H28.5027C24.0737 76.0958 20.4831 72.514 20.4831 68.0958V20.3244C20.4831 15.9061 24.0737 12.3244 28.5027 12.3244H40.532L42.8015 9.99564C45.9506 6.76448 51.1525 6.76448 54.3016 9.99564L56.5711 12.3244H68.6005C73.0297 12.3244 76.62 15.9061 76.62 20.3244V68.0958C76.62 72.514 73.0297 76.0958 68.6005 76.0958ZM53.6961 15.1127C54.4511 15.8873 55.4881 16.3244 56.5711 16.3244H68.6005C70.8151 16.3244 72.6102 18.1152 72.6102 20.3244V23H64.6083V27H72.6102V33H64.6083V37H72.6102V43H64.6083V47H72.6102V56.2002C69.7851 53.2772 64.1426 49.4582 56.5888 54.34C48.6143 59.4936 41.3151 59.1906 32.915 58.8416C30.2387 58.7304 27.4503 58.6146 24.4929 58.6692V20.3244C24.4929 18.1152 26.2883 16.3244 28.5027 16.3244H40.532C41.615 16.3244 42.6522 15.8873 43.407 15.1127L45.6765 12.784C47.2512 11.1684 49.8521 11.1684 51.4266 12.784L53.6961 15.1127Z" fill="white"/>
</svg>
