<svg width="300" height="300" viewBox="0 0 300 300" fill="none" xmlns="http://www.w3.org/2000/svg">
<path d="M262.878 106.236L261.492 103.974C250.35 85.848 230.292 74.856 209.034 75.93C206.036 76.0818 203.055 76.469 200.118 77.088C180.564 81.222 163.548 95.826 156.492 114.522C152.346 125.526 151.188 138.186 143.292 146.922C133.05 158.286 115.656 158.64 100.368 158.172C85.08 157.704 67.674 158.1 57.48 169.506C51.09 176.652 49.08 186.81 49.578 196.38C50.94 221.706 68.814 244.38 91.578 255.612C114.342 266.844 141.072 267.876 165.978 262.926C200.826 255.99 233.97 236.934 253.89 207.51C273.81 178.086 278.82 138 262.878 106.236Z" fill="#EBEBEB"/>
<path d="M284.022 279.492C284.022 279.582 224.022 279.654 150.006 279.654C75.99 279.654 15.978 279.6 15.978 279.492C15.978 279.384 75.978 279.336 150.006 279.336C224.034 279.336 284.022 279.408 284.022 279.492Z" fill="#263238"/>
<path d="M189.42 134.076C189.748 128.52 190.08 122.964 190.416 117.408C190.458 116.736 190.56 115.962 191.136 115.608C191.417 115.497 191.719 115.451 192.02 115.471C192.321 115.492 192.613 115.58 192.876 115.728C202.728 119.694 209.958 130.686 210.822 141.264" fill="#30846C"/>
<g opacity="0.3">
<path d="M192.768 121.368C195.076 122.88 197.002 124.906 198.397 127.286C199.792 129.667 200.617 132.338 200.808 135.09C200.917 135.755 200.776 136.437 200.412 137.004C200.225 137.207 199.998 137.369 199.745 137.48C199.492 137.591 199.218 137.647 198.942 137.646C198.389 137.64 197.839 137.555 197.31 137.394C195.984 137.052 194.586 136.68 193.602 135.72C192.703 134.767 192.188 133.514 192.156 132.204C192.132 130.905 192.265 129.607 192.552 128.34L194.232 131.208L192.432 121.92C192.404 121.838 192.393 121.752 192.402 121.666C192.41 121.58 192.437 121.497 192.48 121.422C192.582 121.29 192.87 121.338 192.852 121.506" fill="white"/>
</g>
<path d="M132.306 145.908C127.165 139.804 124.208 132.157 123.906 124.182L129.396 126.768L128.022 125.094C136.033 125.762 143.467 129.532 148.74 135.6" fill="#30846C"/>
<g opacity="0.3">
<path d="M135.348 143.484C133.192 141.917 131.38 139.924 130.025 137.629C128.67 135.334 127.801 132.785 127.47 130.14C127.428 129.78 127.47 129.306 127.806 129.186C127.931 129.164 128.06 129.17 128.182 129.205C128.305 129.239 128.418 129.3 128.514 129.384L138.42 135.858C137.99 135.24 137.722 134.524 137.64 133.776L141.84 136.854C142 136.943 142.14 137.062 142.253 137.205C142.366 137.348 142.45 137.512 142.5 137.688C142.502 137.885 142.457 138.081 142.368 138.257C142.28 138.433 142.15 138.586 141.99 138.702C141.29 139.334 140.439 139.773 139.519 139.977C138.598 140.181 137.641 140.143 136.74 139.866L138.54 141.432C138.004 141.778 137.403 142.013 136.774 142.121C136.145 142.229 135.501 142.209 134.88 142.062C134.819 142.358 134.849 142.665 134.964 142.944C135.08 143.223 135.276 143.462 135.528 143.628" fill="white"/>
</g>
<path d="M244.2 198.27C244.2 198.27 251.88 206.208 255.372 205.548C255.372 205.548 243.24 192.642 238.14 180.732C235.704 175.1 232.802 169.681 229.464 164.532C231.762 160.572 233.808 156.09 234.744 151.56C232.165 154.552 229.224 157.212 225.99 159.48C225.726 159.108 225.456 158.742 225.18 158.37C227.894 155.915 229.703 152.618 230.316 149.01L218.19 148.488C218.57 147.941 218.912 147.37 219.216 146.778C213.259 141.658 206.589 137.432 199.416 134.232C185.466 126.294 154.416 123.672 139.296 136.578C125.754 144.474 122.124 154.578 111.456 157.08L105.132 156.39C105.132 156.39 102.672 169.59 110.754 175.488L104.754 174.096C104.754 174.096 105.858 179.352 111.762 185.148L108.078 184.698C108.078 184.698 109.674 192.966 114.774 194.952C114.774 194.952 106.806 195.948 104.574 192.966C104.574 192.966 101.922 205.326 113.988 209.988C113.988 209.988 77.832 214.224 87.996 258.486C90.396 268.824 104.646 276.264 121.056 279.858L239.256 279.396C246.456 277.044 255.048 253.188 255.366 243.594C255.684 234 250.908 215.466 250.908 215.466L255.384 221.424L244.2 198.27Z" fill="#30846C"/>
<path d="M109.104 216.714C102.318 216.306 95.652 221.58 94.494 228.282C98.9091 225.354 103.951 223.504 109.212 222.882C107.14 224.788 105.696 227.278 105.071 230.024C104.446 232.769 104.67 235.639 105.714 238.254C106.589 235.917 107.929 233.782 109.653 231.978C111.378 230.174 113.451 228.739 115.746 227.76C114.178 229.651 113.125 231.915 112.687 234.332C112.25 236.75 112.444 239.239 113.25 241.56" fill="#30846C"/>
<path d="M113.25 241.572C113.21 241.494 113.177 241.411 113.154 241.326C113.1 241.164 113.004 240.924 112.908 240.606C112.644 239.662 112.479 238.692 112.416 237.714C112.324 236.167 112.48 234.616 112.878 233.118C113.399 231.137 114.347 229.294 115.656 227.718L115.794 227.904C113.521 228.886 111.469 230.316 109.761 232.109C108.052 233.901 106.723 236.02 105.852 238.338L105.72 238.698L105.576 238.344C104.851 236.518 104.515 234.561 104.591 232.598C104.666 230.635 105.151 228.709 106.014 226.944C106.774 225.385 107.825 223.986 109.11 222.822L109.23 223.092C103.994 223.71 98.9733 225.538 94.566 228.432L94.302 228.606L94.362 228.294C94.6286 226.846 95.1356 225.453 95.862 224.172C96.5057 223.012 97.3141 221.951 98.262 221.022C99.7763 219.489 101.607 218.306 103.626 217.554C104.917 217.07 106.275 216.787 107.652 216.714C108.132 216.714 108.498 216.714 108.738 216.714C108.492 216.714 108.138 216.714 107.658 216.714C106.295 216.819 104.954 217.124 103.68 217.62C101.695 218.384 99.9 219.569 98.418 221.094C97.4946 222.015 96.7086 223.063 96.084 224.208C95.3803 225.469 94.8897 226.837 94.632 228.258L94.422 228.12C98.8591 225.191 103.92 223.342 109.2 222.72L109.686 222.666L109.32 222.99C108.074 224.13 107.056 225.496 106.32 227.016C105.471 228.744 104.992 230.631 104.916 232.555C104.839 234.479 105.166 236.398 105.876 238.188H105.6C106.55 235.675 108.032 233.397 109.944 231.51C111.608 229.864 113.571 228.55 115.728 227.64L116.184 227.448L115.866 227.826C114.567 229.372 113.619 231.182 113.088 233.13C112.682 234.608 112.51 236.141 112.578 237.672C112.625 238.642 112.769 239.605 113.01 240.546C113.088 240.87 113.172 241.116 113.214 241.278C113.236 241.375 113.248 241.473 113.25 241.572Z" fill="#263238"/>
<path d="M232.998 235.332C236.661 234.557 240.48 235.068 243.81 236.778C247.141 238.488 249.781 241.293 251.286 244.722" fill="#30846C"/>
<path d="M251.286 244.722C251.226 244.752 250.764 243.582 249.594 241.956C248.069 239.836 246.063 238.109 243.74 236.917C241.416 235.724 238.843 235.101 236.232 235.098C234.228 235.098 233.004 235.398 232.998 235.332C233.272 235.232 233.555 235.162 233.844 235.122C234.636 234.973 235.439 234.893 236.244 234.882C238.902 234.822 241.533 235.426 243.898 236.639C246.264 237.852 248.29 239.637 249.792 241.83C250.249 242.488 250.65 243.182 250.992 243.906C251.121 244.166 251.219 244.44 251.286 244.722Z" fill="#263238"/>
<g opacity="0.3">
<path d="M191.322 245.304C186.966 246 181.422 249.294 179.4 253.2C178.968 254.034 179.364 254.148 179.4 255.084C179.401 255.556 179.534 256.018 179.784 256.418C180.034 256.818 180.392 257.139 180.816 257.346C181.031 257.433 181.262 257.474 181.494 257.467C181.726 257.459 181.953 257.403 182.162 257.302C182.371 257.2 182.556 257.056 182.705 256.879C182.855 256.702 182.966 256.495 183.03 256.272C182.51 259.469 183.208 262.745 184.986 265.452C186.212 264.761 187.199 263.715 187.818 262.452C187.704 264.796 188.071 267.139 188.897 269.336C189.722 271.532 190.989 273.537 192.618 275.226L190.494 266.94C189.732 263.94 188.994 261.39 189.198 258.312C189.414 255.024 191.37 252.252 192.888 249.528C190.8 250.434 188.382 254.538 186.324 257.04C186.201 254.863 186.573 252.686 187.414 250.673C188.255 248.661 189.542 246.866 191.178 245.424" fill="black"/>
</g>
<path d="M190.506 267.036C190.437 266.924 190.381 266.806 190.338 266.682C190.248 266.442 190.074 266.082 189.93 265.62C189.48 264.273 189.208 262.873 189.12 261.456C188.978 259.298 189.232 257.132 189.87 255.066C190.655 252.44 192.056 250.039 193.956 248.064L194.166 248.28C192.412 249.852 190.748 251.52 189.18 253.278C188.167 254.434 187.273 255.688 186.51 257.022L186.276 257.436L186.222 256.968C185.957 254.493 186.406 251.995 187.518 249.768C188.438 247.881 189.806 246.247 191.502 245.01L191.616 245.214C190.424 245.658 189.331 246.333 188.4 247.2C187.698 247.851 187.092 248.599 186.6 249.42C186.288 249.943 186.019 250.491 185.796 251.058C185.732 251.262 185.656 251.463 185.568 251.658C185.561 251.606 185.561 251.554 185.568 251.502C185.598 251.394 185.634 251.238 185.7 251.04C185.898 250.454 186.153 249.889 186.462 249.354C186.948 248.507 187.555 247.735 188.262 247.062C189.204 246.168 190.313 245.468 191.526 245.004L192.33 244.698L191.634 245.208C189.998 246.441 188.682 248.051 187.8 249.9C186.732 252.08 186.301 254.518 186.558 256.932L186.27 256.872C187.043 255.521 187.948 254.248 188.97 253.074C190.547 251.307 192.223 249.632 193.992 248.058L194.202 248.274C192.33 250.212 190.94 252.563 190.146 255.138C189.502 257.175 189.229 259.311 189.342 261.444C189.411 262.85 189.651 264.242 190.056 265.59C190.188 266.064 190.344 266.412 190.416 266.658C190.454 266.782 190.484 266.908 190.506 267.036Z" fill="#263238"/>
<path d="M119.316 266.4C121.673 269.015 124.774 270.845 128.202 271.644C128.388 271.718 128.591 271.743 128.79 271.716C128.988 271.689 129.177 271.61 129.336 271.488C129.684 271.104 129.396 270.498 129.108 270.072L125.298 264.444C128.01 266.588 131.227 268.001 134.64 268.548C135.21 268.638 135.912 268.638 136.2 268.146C136.282 267.93 136.313 267.697 136.289 267.467C136.265 267.236 136.187 267.015 136.062 266.82C135.462 265.536 134.862 264.27 134.154 263.034" fill="#30846C"/>
<path d="M134.154 263.01C134.227 263.103 134.29 263.203 134.34 263.31L134.82 264.21C135.036 264.612 135.282 265.092 135.57 265.638C135.722 265.918 135.878 266.218 136.038 266.538C136.238 266.874 136.366 267.248 136.416 267.636C136.433 267.868 136.364 268.098 136.224 268.284C136.07 268.468 135.859 268.594 135.624 268.644C135.16 268.715 134.687 268.693 134.232 268.578C133.24 268.408 132.264 268.161 131.31 267.84C129.101 267.103 127.036 265.988 125.208 264.546L125.436 264.336L126.096 265.314L128.22 268.458L129.234 269.952C129.414 270.208 129.546 270.495 129.624 270.798C129.67 270.965 129.661 271.142 129.6 271.304C129.538 271.466 129.427 271.604 129.282 271.698C129 271.841 128.676 271.875 128.37 271.794C128.088 271.746 127.836 271.662 127.572 271.602C127.05 271.452 126.552 271.296 126.084 271.116C125.208 270.787 124.361 270.385 123.552 269.916C122.379 269.241 121.292 268.425 120.318 267.486C119.976 267.15 119.718 266.886 119.562 266.688C119.472 266.595 119.391 266.492 119.322 266.382C119.427 266.457 119.524 266.544 119.61 266.64C119.784 266.82 120.048 267.078 120.402 267.396C121.398 268.291 122.49 269.072 123.66 269.724C124.466 270.175 125.307 270.56 126.174 270.876C126.642 271.05 127.134 271.2 127.644 271.344C128.154 271.488 128.724 271.686 129.132 271.458C129.227 271.394 129.299 271.301 129.335 271.192C129.372 271.084 129.373 270.967 129.336 270.858C129.265 270.594 129.145 270.345 128.982 270.126C128.652 269.64 128.316 269.142 127.968 268.638C127.28 267.618 126.57 266.57 125.838 265.494L125.178 264.516L124.578 263.676L125.4 264.3C127.988 266.347 131.036 267.731 134.28 268.332C134.702 268.445 135.143 268.473 135.576 268.416C135.759 268.392 135.926 268.299 136.043 268.157C136.16 268.014 136.218 267.832 136.206 267.648C136.165 267.285 136.05 266.934 135.87 266.616C135.714 266.298 135.564 266.016 135.426 265.71L134.724 264.264L134.292 263.34C134.231 263.237 134.185 263.126 134.154 263.01Z" fill="#263238"/>
<g opacity="0.3">
<path d="M134.118 229.068C135.444 231.306 137.385 233.116 139.71 234.282C139.577 233.049 139.066 231.888 138.246 230.958C140.778 233.37 143.778 235.236 147.06 236.442C145.663 237.064 144.137 237.346 142.609 237.263C141.082 237.18 139.596 236.735 138.274 235.965C136.952 235.195 135.832 234.122 135.006 232.834C134.18 231.546 133.672 230.081 133.524 228.558" fill="black"/>
</g>
<g opacity="0.3">
<path d="M118.062 189.966C122.826 199.128 138.234 203.652 150.318 203.85C154.05 203.904 159.318 206.664 163.014 206.304C171.312 205.506 178.05 201.036 186.366 200.304C191.544 199.866 196.752 199.704 201.87 198.834C206.988 197.964 206.754 197.358 210.822 194.124C214.89 190.89 219.288 187.686 219.222 182.49C211.578 191.85 204.024 194.748 192.258 197.49C180.492 200.232 168.258 200.172 156.192 199.614C142.914 199.014 128.976 197.55 118.062 189.96" fill="black"/>
</g>
<path d="M159.054 119.694C159.108 119.694 159.156 120.372 159.336 121.446C159.574 122.844 159.956 124.213 160.476 125.532C161.008 126.848 161.674 128.107 162.462 129.288C162.821 129.758 163.155 130.247 163.464 130.752C163.464 130.752 163.326 130.65 163.116 130.422C162.817 130.104 162.539 129.767 162.282 129.414C161.428 128.253 160.725 126.989 160.188 125.652C159.65 124.305 159.291 122.893 159.12 121.452C159.064 121.02 159.031 120.585 159.024 120.15C159.012 119.997 159.022 119.844 159.054 119.694Z" fill="#30846C"/>
<path d="M162.972 118.2C163.026 118.2 162.786 118.8 162.552 119.802C162.256 121.096 162.157 122.427 162.258 123.75C162.366 125.071 162.676 126.368 163.176 127.596C163.56 128.544 163.89 129.09 163.842 129.114C163.794 129.138 163.728 129 163.566 128.76C163.34 128.417 163.14 128.058 162.966 127.686C161.814 125.2 161.591 122.384 162.336 119.748C162.443 119.354 162.581 118.968 162.75 118.596C162.876 118.308 162.954 118.164 162.972 118.2Z" fill="#30846C"/>
<path d="M89.538 217.92C89.6094 217.834 89.6898 217.755 89.778 217.686C89.94 217.542 90.174 217.314 90.504 217.086C91.426 216.353 92.4006 215.69 93.42 215.1C96.8065 213.181 100.492 211.846 104.322 211.152C108.141 210.457 112.009 210.072 115.89 210C117.378 209.964 118.578 209.952 119.406 209.952H120.366C120.478 209.942 120.59 209.942 120.702 209.952C120.592 209.979 120.479 209.993 120.366 209.994L119.412 210.042L115.896 210.192C112.034 210.315 108.186 210.716 104.382 211.392C100.584 212.086 96.9207 213.378 93.528 215.22C92.5094 215.793 91.5257 216.426 90.582 217.116C89.916 217.65 89.556 217.938 89.538 217.92Z" fill="#30846C"/>
<path d="M175.548 120.804C175.548 120.858 174.522 120.516 172.854 120.108C171.884 119.869 170.889 119.751 169.89 119.754C168.677 119.762 167.488 120.1 166.452 120.732C165.926 121.06 165.468 121.485 165.102 121.986C164.773 122.46 164.543 122.994 164.424 123.558C164.252 124.536 164.295 125.539 164.55 126.498C164.964 128.154 165.408 129.138 165.348 129.162C165.212 128.95 165.101 128.722 165.018 128.484C164.746 127.857 164.517 127.211 164.334 126.552C164.041 125.563 163.976 124.521 164.142 123.504C164.26 122.897 164.501 122.322 164.85 121.812C165.237 121.274 165.724 120.815 166.284 120.462C167.369 119.804 168.615 119.46 169.884 119.466C170.899 119.476 171.908 119.621 172.884 119.898C173.718 120.12 174.378 120.348 174.834 120.498C175.082 120.576 175.321 120.678 175.548 120.804Z" fill="#30846C"/>
<path d="M265.566 271.164C264.918 266.856 262.806 262.614 259.2 260.16C255.594 257.706 250.404 257.418 246.972 260.112L232.728 279.372L263.052 279.498C264.744 277.932 265.908 273.444 265.566 271.164Z" fill="#30846C"/>
<g opacity="0.3">
<path d="M245.4 279.096C247.962 278.028 249.852 275.73 251.016 273.21C252.18 270.69 252.69 267.93 253.2 265.2C253.62 262.938 254.016 260.496 253.032 258.408C252.797 258.395 252.563 258.444 252.353 258.549C252.142 258.654 251.963 258.813 251.832 259.008C251.569 259.406 251.376 259.847 251.262 260.31C248.916 267.714 245.298 274.11 239.388 279.12" fill="black"/>
</g>
<g opacity="0.3">
<path d="M155.328 128.646C158.328 137.292 158.706 146.646 158.382 155.76C158.22 160.308 157.878 164.904 156.456 169.23C155.034 173.556 152.424 177.63 148.548 180.03C144.888 182.292 140.364 182.886 136.092 182.322C131.82 181.758 127.764 180.12 123.918 178.188C119.526 175.98 115.296 173.34 111.888 169.788C108.48 166.236 105.684 161.274 105.12 156.396L111.444 157.086C111.444 157.086 116.31 156.57 123.876 149.25C132.144 141.258 133.65 140.28 139.842 136.116C144.644 132.94 149.853 130.428 155.328 128.646Z" fill="white"/>
</g>
<g opacity="0.3">
<path d="M181.464 181.938C182.66 181.264 184.044 180.999 185.405 181.184C186.765 181.369 188.028 181.994 189 182.964C189.962 181.706 191.265 180.749 192.753 180.207C194.241 179.665 195.854 179.56 197.4 179.904C195.525 180.641 193.779 181.672 192.228 182.958C190.746 184.32 189.678 186.276 189.864 188.28C188.01 186.283 185.878 184.563 183.534 183.174C182.562 182.574 181.284 182.088 180.372 182.76" fill="black"/>
</g>
<path d="M202.128 249.534C198.645 252.034 196.078 255.607 194.82 259.706C193.562 263.804 193.682 268.202 195.162 272.226" fill="#30846C"/>
<path d="M195.162 272.226C195.113 272.154 195.074 272.075 195.048 271.992C194.988 271.83 194.886 271.602 194.784 271.29C194.492 270.423 194.269 269.534 194.118 268.632C193.594 265.639 193.786 262.564 194.677 259.658C195.569 256.753 197.135 254.1 199.248 251.916C199.879 251.261 200.564 250.659 201.294 250.116C201.546 249.918 201.762 249.78 201.894 249.684C202.026 249.588 202.116 249.546 202.122 249.558C201.88 249.789 201.626 250.008 201.36 250.212C200.669 250.796 200.016 251.423 199.404 252.09C197.362 254.283 195.844 256.91 194.965 259.774C194.085 262.639 193.868 265.665 194.328 268.626C194.461 269.521 194.652 270.407 194.898 271.278C195.007 271.588 195.095 271.904 195.162 272.226Z" fill="#263238"/>
<path d="M214.062 228.762C216.516 226.878 219.684 224.898 222.462 226.224C223.232 226.646 223.891 227.242 224.388 227.966C224.885 228.689 225.206 229.518 225.324 230.388C225.54 232.129 225.43 233.895 225 235.596C222.985 245.52 218.608 254.813 212.238 262.686C209.928 265.542 206.64 268.434 203.052 267.648C199.704 266.91 197.802 263.082 198 259.656C198.198 256.23 199.926 253.116 201.528 250.056C205.332 242.856 209.028 234.96 214.044 228.738" fill="#30846C"/>
<path d="M214.062 228.762C214.014 228.841 213.962 228.917 213.906 228.99L213.426 229.632C213 230.196 212.382 231.042 211.626 232.152C209.535 235.316 207.62 238.593 205.89 241.968L202.29 248.952C201.018 251.472 199.416 254.076 198.582 257.124C198.134 258.672 198.05 260.302 198.336 261.888C198.638 263.538 199.455 265.051 200.67 266.208C201.3 266.775 202.054 267.186 202.872 267.408C203.71 267.625 204.586 267.647 205.434 267.474C207.169 267.026 208.753 266.121 210.018 264.852C211.313 263.599 212.492 262.231 213.54 260.766C214.62 259.35 215.592 257.886 216.54 256.434C219.9 251.069 222.442 245.233 224.082 239.118C224.442 237.758 224.75 236.434 225.006 235.146C225.278 233.925 225.4 232.676 225.372 231.426C225.3 229.068 224.064 226.926 222.306 226.212C221.498 225.87 220.61 225.764 219.744 225.906C219.014 226.029 218.304 226.249 217.632 226.56C216.702 227.001 215.812 227.523 214.974 228.12L214.314 228.588C214.17 228.69 214.086 228.738 214.086 228.738L214.296 228.564C214.44 228.444 214.65 228.282 214.938 228.072C215.764 227.448 216.648 226.905 217.578 226.452C218.256 226.122 218.977 225.889 219.72 225.762C220.683 225.585 221.677 225.715 222.562 226.135C223.446 226.555 224.175 227.244 224.646 228.102C225.226 229.112 225.55 230.25 225.588 231.414C225.629 232.681 225.514 233.949 225.246 235.188C224.988 236.484 224.688 237.816 224.334 239.184C222.706 245.327 220.168 251.192 216.804 256.584C215.868 258.048 214.89 259.512 213.804 260.94C212.745 262.422 211.554 263.806 210.246 265.074C208.94 266.382 207.304 267.313 205.512 267.768C204.618 267.949 203.694 267.923 202.812 267.69C201.945 267.451 201.147 267.009 200.484 266.4C199.227 265.197 198.387 263.625 198.084 261.912C197.789 260.282 197.877 258.606 198.342 257.016C199.2 253.908 200.82 251.304 202.092 248.796C203.364 246.288 204.624 243.96 205.74 241.83C207.49 238.458 209.437 235.192 211.572 232.05C212.34 230.946 212.976 230.112 213.414 229.56L213.924 228.96C213.967 228.892 214.013 228.826 214.062 228.762Z" fill="#263238"/>
<g opacity="0.3">
<path d="M214.362 237.318V237.348C214.962 235.656 216.24 235.17 217.614 234.672C218.988 234.174 220.65 234.228 221.754 235.188C223.026 236.292 223.188 238.236 222.846 239.886C222.765 240.469 222.527 241.019 222.156 241.476C221.964 241.698 221.707 241.853 221.421 241.919C221.135 241.985 220.836 241.958 220.566 241.842C219.966 241.512 219.78 240.642 219.144 240.378C218.508 240.114 217.668 240.708 216.9 240.9C216.375 241.002 215.83 240.918 215.359 240.665C214.888 240.411 214.519 240.002 214.314 239.508C214.176 239.158 214.11 238.784 214.118 238.408C214.126 238.032 214.209 237.662 214.362 237.318Z" fill="black"/>
</g>
<g opacity="0.3">
<path d="M216.978 228.87C217.286 229.007 217.543 229.238 217.713 229.53C217.882 229.822 217.954 230.16 217.92 230.496C217.89 231.249 217.726 231.991 217.434 232.686C217.224 233.286 216.87 233.952 216.234 233.976C216.056 233.971 215.881 233.921 215.728 233.829C215.575 233.738 215.447 233.609 215.358 233.454C215.186 233.141 215.089 232.791 215.076 232.434C215.016 231.616 215.143 230.795 215.448 230.034C215.579 229.637 215.826 229.288 216.156 229.032C216.323 228.906 216.526 228.838 216.735 228.838C216.944 228.838 217.147 228.906 217.314 229.032" fill="black"/>
</g>
<g opacity="0.3">
<path d="M224.166 230.346C224.474 230.483 224.731 230.714 224.9 231.006C225.07 231.298 225.142 231.636 225.108 231.972C225.078 232.725 224.913 233.467 224.622 234.162C224.412 234.762 224.052 235.428 223.422 235.452C223.243 235.448 223.069 235.397 222.915 235.306C222.762 235.215 222.635 235.085 222.546 234.93C222.368 234.619 222.271 234.268 222.264 233.91C222.205 233.093 222.33 232.273 222.63 231.51C222.764 231.113 223.012 230.764 223.344 230.508C223.51 230.381 223.714 230.312 223.923 230.312C224.132 230.312 224.336 230.381 224.502 230.508" fill="black"/>
</g>
<g opacity="0.3">
<path d="M221.13 227.598C221.437 227.739 221.693 227.971 221.862 228.264C222.03 228.556 222.104 228.894 222.072 229.23C222.039 229.981 221.875 230.72 221.586 231.414C221.37 232.014 221.016 232.686 220.386 232.704C220.207 232.7 220.033 232.649 219.88 232.558C219.726 232.467 219.599 232.337 219.51 232.182C219.337 231.871 219.242 231.523 219.234 231.168C219.169 230.35 219.294 229.529 219.6 228.768C219.731 228.369 219.98 228.02 220.314 227.766C220.48 227.64 220.682 227.572 220.89 227.572C221.098 227.572 221.3 227.64 221.466 227.766" fill="black"/>
</g>
<g opacity="0.3">
<path d="M218.802 252.126C218.323 255.756 217.336 259.301 215.868 262.656C214.388 266.024 212.126 268.991 209.268 271.308C207.948 272.34 206.4 273.228 204.726 273.27C202.356 273.33 200.196 271.632 199.128 269.514C198.06 267.396 197.928 264.936 198.036 262.572C199.182 264.486 200.472 266.526 202.548 267.372C203.466 267.68 204.439 267.785 205.401 267.682C206.363 267.578 207.291 267.268 208.122 266.772C209.778 265.769 211.226 264.457 212.388 262.908C214.959 259.77 217.072 256.283 218.664 252.552" fill="black"/>
</g>
<path d="M84.42 229.242C81.468 228.336 77.82 227.586 75.648 229.806C75.0789 230.474 74.674 231.265 74.4656 232.118C74.2572 232.97 74.2512 233.859 74.448 234.714C74.8536 236.422 75.5738 238.04 76.572 239.484C81.9353 248.074 89.286 255.248 98.004 260.4C101.166 262.26 105.258 263.82 108.342 261.822C111.228 259.962 111.66 255.708 110.28 252.57C108.9 249.432 106.2 247.098 103.614 244.8C97.53 239.4 91.302 233.292 84.414 229.2" fill="#30846C"/>
<path d="M84.42 229.242C84.42 229.242 84.504 229.278 84.666 229.368L85.356 229.776C85.956 230.142 86.85 230.7 87.96 231.462C91.0593 233.659 94.0264 236.038 96.846 238.584L102.708 243.828C104.778 245.73 107.208 247.602 109.098 250.212C110.092 251.537 110.764 253.076 111.06 254.706C111.368 256.421 111.127 258.189 110.37 259.758C109.959 260.557 109.368 261.25 108.642 261.78C107.896 262.309 107.038 262.659 106.134 262.8C104.289 263.007 102.422 262.709 100.734 261.936C99.0596 261.206 97.4533 260.328 95.934 259.314C94.422 258.354 92.988 257.322 91.602 256.284C88.9721 254.251 86.5046 252.016 84.222 249.6C82.1457 247.412 80.2288 245.078 78.486 242.616C77.676 241.458 76.926 240.312 76.236 239.19C75.5485 238.124 74.9943 236.977 74.586 235.776C74.2147 234.672 74.12 233.493 74.31 232.344C74.45 231.375 74.8918 230.475 75.5725 229.772C76.2533 229.069 77.1384 228.598 78.102 228.426C78.8437 228.289 79.6006 228.252 80.352 228.318C81.3827 228.421 82.4013 228.622 83.394 228.918C83.736 229.014 83.994 229.092 84.162 229.152L84.42 229.248L84.156 229.182L83.376 228.978C82.3812 228.714 81.3654 228.535 80.34 228.444C79.6014 228.39 78.8589 228.434 78.132 228.576C77.2697 228.751 76.4748 229.167 75.84 229.776C74.442 231.066 74.04 233.502 74.796 235.734C75.2066 236.914 75.7586 238.04 76.44 239.088C77.136 240.204 77.888 241.338 78.696 242.49C82.376 247.641 86.8025 252.215 91.83 256.062C93.21 257.1 94.638 258.126 96.144 259.062C97.6405 260.067 99.225 260.935 100.878 261.654C102.505 262.403 104.305 262.697 106.086 262.506C106.95 262.375 107.772 262.044 108.486 261.54C109.175 261.041 109.734 260.385 110.118 259.626C110.85 258.118 111.085 256.416 110.79 254.766C110.506 253.18 109.854 251.682 108.888 250.392C107.04 247.824 104.628 245.946 102.558 244.032L96.726 238.758C93.9235 236.197 90.981 233.793 87.912 231.558C86.82 230.778 85.944 230.208 85.35 229.824L84.672 229.392L84.42 229.242Z" fill="#263238"/>
<g opacity="0.3">
<path d="M87.144 237.354C85.986 235.98 84.624 235.968 83.16 235.986C81.696 236.004 80.16 236.64 79.464 237.918C78.66 239.406 79.188 241.278 80.064 242.718C80.3392 243.237 80.7551 243.667 81.264 243.96C81.5198 244.103 81.815 244.16 82.1058 244.123C82.3966 244.085 82.6674 243.954 82.878 243.75C83.328 243.228 83.202 242.358 83.694 241.878C84.186 241.398 85.2 241.668 85.98 241.584C86.5076 241.495 86.9883 241.226 87.3413 240.824C87.6943 240.422 87.8979 239.911 87.918 239.376C87.9341 238.627 87.6563 237.901 87.144 237.354Z" fill="black"/>
</g>
<g opacity="0.3">
<path d="M81.726 230.358C81.4856 230.596 81.3261 230.904 81.2701 231.238C81.2141 231.571 81.2645 231.914 81.414 232.218C81.6999 232.91 82.1062 233.546 82.614 234.096C83.016 234.57 83.592 235.086 84.18 234.888C84.3458 234.821 84.4914 234.712 84.6029 234.573C84.7143 234.433 84.7877 234.267 84.816 234.09C84.8701 233.738 84.8392 233.378 84.726 233.04C84.491 232.251 84.0808 231.525 83.526 230.916C83.2639 230.588 82.9082 230.347 82.506 230.226C82.305 230.171 82.0915 230.182 81.8978 230.259C81.704 230.336 81.5405 230.474 81.432 230.652" fill="black"/>
</g>
<g opacity="0.3">
<path d="M75.5161 234.264C75.2761 234.501 75.1169 234.808 75.0609 235.141C75.0049 235.473 75.055 235.815 75.2041 236.118C75.4896 236.81 75.8959 237.446 76.4041 237.996C76.8121 238.47 77.3821 238.986 77.9761 238.788C78.1412 238.72 78.2862 238.611 78.3975 238.471C78.5088 238.332 78.5826 238.166 78.6121 237.99C78.6641 237.637 78.6312 237.277 78.5161 236.94C78.2833 236.15 77.8728 235.423 77.3161 234.816C77.0539 234.488 76.6982 234.247 76.2961 234.126C76.0951 234.071 75.8816 234.082 75.6878 234.159C75.494 234.236 75.3306 234.374 75.2221 234.552" fill="black"/>
</g>
<g opacity="0.3">
<path d="M77.4 230.628C77.1601 230.865 77.0008 231.172 76.9448 231.505C76.8889 231.837 76.9389 232.179 77.088 232.482C77.3736 233.174 77.7799 233.81 78.288 234.36C78.696 234.834 79.266 235.35 79.86 235.152C80.0255 235.085 80.1708 234.976 80.2822 234.836C80.3935 234.696 80.4672 234.53 80.496 234.354C80.5481 234.001 80.5152 233.641 80.4 233.304C80.1673 232.514 79.7568 231.787 79.2 231.18C78.9379 230.852 78.5822 230.611 78.18 230.49C77.979 230.435 77.7655 230.446 77.5718 230.523C77.378 230.6 77.2145 230.738 77.106 230.916" fill="black"/>
</g>
<g opacity="0.3">
<path d="M88.2 252.78C89.9144 256.006 92.0735 258.975 94.614 261.6C97.168 264.242 100.318 266.234 103.8 267.408C105.396 267.918 107.154 268.206 108.738 267.66C110.982 266.886 112.404 264.54 112.662 262.182C112.92 259.824 112.2 257.466 111.252 255.294C110.85 257.49 110.358 259.854 108.702 261.354C107.957 261.964 107.088 262.406 106.156 262.648C105.224 262.891 104.25 262.928 103.302 262.758C101.399 262.4 99.5823 261.682 97.95 260.64C94.4457 258.599 91.2463 256.074 88.446 253.14" fill="black"/>
</g>
<g opacity="0.3">
<path d="M85.968 249.522C85.794 249.762 85.62 250.008 85.452 250.254C86.193 249.059 87.1686 248.026 88.3199 247.219C89.4712 246.411 90.7742 245.845 92.1503 245.555C93.5264 245.265 94.947 245.258 96.3262 245.532C97.7054 245.807 99.0146 246.358 100.175 247.153C101.335 247.948 102.322 248.97 103.076 250.156C103.83 251.343 104.336 252.671 104.563 254.059C104.789 255.447 104.732 256.866 104.395 258.231C104.058 259.597 103.447 260.879 102.6 262.002C95.8546 259.244 89.7483 255.129 84.66 249.912" fill="white"/>
</g>
<path d="M255.36 243.6C255.365 243.735 255.355 243.87 255.33 244.002C255.288 244.302 255.234 244.68 255.174 245.154C255.036 246.156 254.802 247.596 254.472 249.354C253.656 253.996 252.427 258.556 250.8 262.98C249.865 265.407 248.735 267.755 247.422 270C247.116 270.516 246.786 270.996 246.486 271.476L246.03 272.178L245.544 272.832L244.62 274.062C244.302 274.44 243.984 274.794 243.684 275.13C243.384 275.466 243.114 275.808 242.814 276.084L241.986 276.882L241.26 277.572L240.6 278.094L239.682 278.814C239.581 278.905 239.468 278.981 239.346 279.042C239.437 278.941 239.535 278.846 239.64 278.76L240.522 278.004L241.158 277.464L241.86 276.756L242.67 275.952C242.964 275.67 243.222 275.322 243.516 274.986L244.428 273.912L245.334 272.676L245.808 272.028C245.958 271.8 246.102 271.566 246.252 271.326C246.552 270.846 246.852 270.366 247.176 269.856C248.454 267.615 249.559 265.281 250.482 262.872C252.108 258.471 253.37 253.944 254.256 249.336C254.61 247.572 254.856 246.138 255.054 245.136C255.138 244.668 255.21 244.29 255.264 243.996C255.286 243.862 255.318 243.729 255.36 243.6Z" fill="#263238"/>
<path d="M117.324 207.204C117.403 207.096 117.495 206.999 117.6 206.916L118.434 206.136C118.8 205.794 119.25 205.386 119.79 204.936C120.33 204.486 120.93 203.94 121.626 203.388C123 202.254 124.686 200.988 126.612 199.608C128.538 198.228 130.716 196.854 133.068 195.486C135.42 194.118 137.73 192.942 139.854 191.934C141.978 190.926 143.946 190.134 145.614 189.492C146.442 189.162 147.204 188.892 147.87 188.664C148.536 188.436 149.118 188.238 149.592 188.094L150.69 187.758C150.814 187.712 150.943 187.68 151.074 187.662C150.956 187.724 150.834 187.776 150.708 187.818L149.628 188.208C149.16 188.37 148.59 188.574 147.93 188.808C147.27 189.042 146.514 189.33 145.692 189.672C144.042 190.326 142.092 191.172 139.98 192.174C137.868 193.176 135.6 194.4 133.2 195.744C130.8 197.088 128.688 198.504 126.75 199.836C124.812 201.168 123.15 202.44 121.74 203.55C121.038 204.09 120.426 204.612 119.88 205.062C119.334 205.512 118.866 205.896 118.494 206.226L117.618 206.964C117.53 207.055 117.431 207.136 117.324 207.204Z" fill="#263238"/>
<path d="M100.434 197.184C100.434 197.184 100.47 197.154 100.542 197.1L100.878 196.872L102.198 196.032C102.768 195.666 103.47 195.228 104.31 194.754C105.15 194.28 106.11 193.704 107.166 193.152L108.846 192.258C109.446 191.952 110.046 191.658 110.7 191.346C111.972 190.704 113.376 190.104 114.84 189.45C117.798 188.202 121.098 186.954 124.638 185.85C128.178 184.746 131.616 183.948 134.766 183.324C136.344 183.042 137.844 182.754 139.26 182.568C139.962 182.472 140.646 182.358 141.3 182.286L143.196 182.076C144.396 181.932 145.494 181.872 146.454 181.8C147.414 181.728 148.254 181.686 148.926 181.668L150.486 181.626H150.888C150.936 181.617 150.984 181.617 151.032 181.626H150.894L150.486 181.662L148.932 181.764C148.254 181.8 147.426 181.848 146.472 181.944C145.518 182.04 144.42 182.106 143.22 182.268L141.33 182.496C140.676 182.574 139.998 182.694 139.296 182.796C137.886 182.988 136.392 183.288 134.82 183.576C131.688 184.218 128.262 185.046 124.728 186.12C121.194 187.194 117.906 188.448 114.954 189.678C113.49 190.32 112.086 190.914 110.814 191.544C110.172 191.856 109.542 192.144 108.954 192.438L107.268 193.314C106.188 193.854 105.24 194.406 104.4 194.868C103.56 195.33 102.84 195.75 102.258 196.098L100.914 196.89L100.56 197.088C100.482 197.172 100.434 197.19 100.434 197.184Z" fill="#263238"/>
<path d="M171.936 177.408C171.972 177.498 170.424 178.152 168.714 179.298C167.004 180.444 165.798 181.614 165.714 181.542C167.353 179.609 169.503 178.176 171.918 177.408H171.936Z" fill="#263238"/>
<path d="M182.088 180.666C182.088 180.726 181.2 180.324 179.73 179.952C177.815 179.452 175.83 179.269 173.856 179.412C171.881 179.495 169.947 180.009 168.192 180.918C167.493 181.339 166.892 181.903 166.428 182.574C166.489 182.356 166.593 182.152 166.734 181.974C167.098 181.476 167.555 181.052 168.078 180.726C169.386 179.868 171.492 179.274 173.832 179.094C175.84 178.949 177.858 179.164 179.79 179.73C180.372 179.893 180.944 180.093 181.5 180.33C181.708 180.42 181.905 180.533 182.088 180.666Z" fill="#263238"/>
<path d="M162.372 185.67L163.074 187.35C163.281 187.785 163.423 188.248 163.494 188.724C163.528 188.963 163.51 189.207 163.442 189.439C163.373 189.671 163.256 189.885 163.098 190.068C162.828 190.296 162.49 190.43 162.137 190.448C161.784 190.467 161.434 190.369 161.142 190.17C160.574 189.749 160.154 189.159 159.942 188.484C159.69 187.824 159.522 187.128 159.216 186.492C159.605 186.137 159.899 185.69 160.069 185.192C160.24 184.694 160.283 184.161 160.194 183.642C160.194 183.642 160.8 185.562 162.372 185.67Z" fill="#F5F5F5"/>
<path d="M152.574 179.55C153.105 178.48 153.854 177.532 154.773 176.767C155.691 176.003 156.759 175.438 157.908 175.11C161.736 174.102 165.708 178.11 165.708 178.11C165.708 178.11 161.082 176.748 161.148 179.046C161.214 181.344 162.576 181.29 161.04 182.802C159.504 184.314 156.87 182.724 156.24 180.942L155.004 179.202L152.574 179.55Z" fill="#263238"/>
<path d="M168.426 181.8C168.426 181.8 168.426 181.878 168.456 182.016C168.476 182.226 168.476 182.436 168.456 182.646C168.346 183.415 168.036 184.141 167.556 184.752C167.206 185.216 166.765 185.604 166.261 185.892C165.757 186.181 165.199 186.365 164.622 186.432C163.909 186.486 163.194 186.372 162.534 186.098C161.874 185.823 161.288 185.397 160.824 184.854C160.364 184.326 160.041 183.694 159.882 183.012L160.176 182.928C160.357 183.493 160.405 184.091 160.319 184.678C160.233 185.264 160.014 185.823 159.678 186.312C159.224 186.948 158.582 187.425 157.842 187.675C157.103 187.926 156.303 187.938 155.556 187.71C155.399 187.662 155.246 187.6 155.1 187.524C155.004 187.47 154.956 187.44 154.956 187.428C154.956 187.416 155.178 187.512 155.586 187.608C156.163 187.74 156.761 187.74 157.338 187.608C158.202 187.413 158.96 186.896 159.456 186.162C159.759 185.705 159.955 185.185 160.03 184.642C160.105 184.099 160.056 183.546 159.888 183.024L160.182 182.946C160.335 183.577 160.638 184.161 161.064 184.65C161.496 185.157 162.041 185.556 162.654 185.817C163.268 186.077 163.933 186.191 164.598 186.15C165.141 186.091 165.668 185.925 166.147 185.661C166.626 185.397 167.047 185.042 167.388 184.614C167.864 184.039 168.19 183.354 168.336 182.622C168.414 182.118 168.396 181.8 168.426 181.8Z" fill="#263238"/>
<path d="M161.01 175.674C160.613 175.734 160.211 175.752 159.81 175.728C158.839 175.718 157.872 175.843 156.936 176.1C156.011 176.37 155.172 176.874 154.5 177.564C154.002 178.11 153.822 178.548 153.774 178.53C153.853 178.114 154.049 177.729 154.338 177.42C154.992 176.641 155.866 176.076 156.846 175.8C157.812 175.532 158.816 175.433 159.816 175.506C160.22 175.5 160.623 175.556 161.01 175.674Z" fill="white"/>
<path d="M162.162 190.584C161.583 189.611 161.147 188.561 160.866 187.464C160.491 186.397 160.273 185.282 160.218 184.152C160.308 184.152 160.626 185.604 161.166 187.374C161.706 189.144 162.246 190.548 162.162 190.584Z" fill="#263238"/>
<path d="M119.442 197.31C119.515 197.232 119.595 197.162 119.682 197.1L120.408 196.536C121.008 196.05 121.986 195.384 123.18 194.604C124.374 193.824 125.826 192.948 127.488 192.048C129.15 191.148 131.022 190.248 133.038 189.426C135.054 188.604 137.016 187.932 138.822 187.386C140.628 186.84 142.284 186.444 143.682 186.186C145.08 185.928 146.22 185.706 147.012 185.586L147.924 185.472C148.03 185.46 148.136 185.46 148.242 185.472C148.143 185.515 148.038 185.543 147.93 185.556L147.03 185.724C146.244 185.856 145.116 186.084 143.73 186.396C142.344 186.708 140.73 187.128 138.93 187.674C137.13 188.22 135.186 188.91 133.176 189.726C131.166 190.542 129.312 191.448 127.644 192.318C125.976 193.188 124.524 194.046 123.318 194.802C122.112 195.558 121.158 196.194 120.504 196.65L119.742 197.16C119.544 197.268 119.448 197.322 119.442 197.31Z" fill="#263238"/>
<path d="M149.507 170.879C151.24 163.61 146.752 156.313 139.483 154.58C132.215 152.847 124.918 157.334 123.185 164.603C121.452 171.872 125.939 179.169 133.208 180.902C140.476 182.635 147.774 178.147 149.507 170.879Z" fill="#F5F5F5"/>
<path d="M149.886 167.76C149.886 174.288 145.476 179.586 141.744 179.586C138.012 179.586 135 174.288 135 167.76C135 161.232 138 155.928 141.768 155.928C145.536 155.928 149.886 161.226 149.886 167.76Z" fill="#263238"/>
<path d="M144.744 163.386C146.023 163.386 147.06 162.349 147.06 161.07C147.06 159.791 146.023 158.754 144.744 158.754C143.465 158.754 142.428 159.791 142.428 161.07C142.428 162.349 143.465 163.386 144.744 163.386Z" fill="white"/>
<path d="M138.756 176.352C138.621 176.179 138.508 175.989 138.42 175.788C138.137 175.257 137.894 174.705 137.694 174.138C137.383 173.299 137.14 172.436 136.968 171.558C136.764 170.481 136.652 169.39 136.632 168.294C136.628 167.196 136.719 166.1 136.902 165.018C137.056 164.137 137.281 163.271 137.574 162.426C137.762 161.855 137.992 161.3 138.264 160.764C138.345 160.551 138.454 160.349 138.588 160.164C138.642 160.164 138.228 161.034 137.784 162.474C137.526 163.315 137.326 164.173 137.184 165.042C137.02 166.108 136.94 167.185 136.944 168.264C136.964 169.342 137.066 170.417 137.25 171.48C137.408 172.348 137.626 173.204 137.904 174.042C138.378 175.494 138.81 176.328 138.756 176.352Z" fill="white"/>
<path d="M132.918 150.528C132.882 150.966 132.378 151.302 131.718 151.614C131.058 151.926 130.164 152.214 129.282 152.616C128.4 153.018 127.626 153.366 126.966 153.666C126.306 153.966 125.766 154.146 125.376 153.912C124.986 153.678 124.938 153.024 125.376 152.154C125.968 151.056 126.932 150.205 128.094 149.754C129.207 149.263 130.45 149.15 131.634 149.43C132.48 149.658 132.954 150.108 132.918 150.528Z" fill="#263238"/>
<path d="M68.346 265.8L71.388 261.036C85.872 276.948 133.728 295.872 176.574 253.098C194.976 234.726 193.488 203.682 193.488 203.682L189.828 192.186H193.488C193.488 192.186 204.096 211.752 192.99 237.372C192.99 237.372 181.59 267.738 146.688 278.772C91.632 296.16 68.346 265.8 68.346 265.8Z" fill="#30846C"/>
<g opacity="0.7">
<path d="M68.346 265.8L71.388 261.036C85.872 276.948 133.728 295.872 176.574 253.098C194.976 234.726 193.488 203.682 193.488 203.682L189.828 192.186H193.488C193.488 192.186 204.096 211.752 192.99 237.372C192.99 237.372 181.59 267.738 146.688 278.772C91.632 296.16 68.346 265.8 68.346 265.8Z" fill="white"/>
</g>
<path d="M67.5255 271.622C77.683 261.464 77.683 244.995 67.5255 234.838C57.368 224.68 40.8994 224.68 30.7418 234.838C20.5843 244.995 20.5843 261.464 30.7418 271.621C40.8993 281.779 57.368 281.779 67.5255 271.622Z" fill="#30846C"/>
<g opacity="0.7">
<path d="M67.5255 271.622C77.683 261.464 77.683 244.995 67.5255 234.838C57.368 224.68 40.8994 224.68 30.7418 234.838C20.5843 244.995 20.5843 261.464 30.7418 271.622C40.8993 281.779 57.368 281.779 67.5255 271.622Z" fill="white"/>
</g>
<path d="M55.368 227.946C55.354 228.113 55.3239 228.277 55.278 228.438C55.206 228.786 55.098 229.254 54.972 229.848C54.9 230.154 54.822 230.496 54.738 230.862C54.654 231.228 54.522 231.624 54.402 232.062C54.144 232.914 53.898 233.898 53.502 234.948L52.902 236.604C52.698 237.204 52.44 237.762 52.194 238.374C51.726 239.604 51.102 240.87 50.472 242.208C49.0285 245.081 47.3802 247.846 45.54 250.482C43.662 253.093 41.5986 255.565 39.366 257.88C38.304 258.918 37.32 259.92 36.312 260.772C35.82 261.204 35.352 261.642 34.878 262.026L33.504 263.124C32.646 263.844 31.8 264.402 31.104 264.924C30.738 265.182 30.408 265.428 30.09 265.638L29.208 266.196L28.008 266.952C27.8712 267.049 27.7244 267.132 27.57 267.198C27.6975 267.09 27.8318 266.989 27.972 266.898L29.172 266.094L30.036 265.494C30.348 265.272 30.672 265.02 31.032 264.762C31.74 264.228 32.574 263.652 33.432 262.926L34.788 261.822C35.262 261.432 35.718 260.994 36.204 260.556C37.2 259.698 38.178 258.69 39.204 257.652C41.4035 255.344 43.4404 252.886 45.3 250.296C47.1328 247.674 48.7808 244.927 50.232 242.076C50.868 240.744 51.492 239.49 51.972 238.272C52.224 237.672 52.488 237.072 52.698 236.514C52.908 235.956 53.106 235.392 53.298 234.87C53.706 233.826 53.97 232.848 54.24 232.008C54.366 231.582 54.498 231.186 54.6 230.808C54.702 230.43 54.78 230.106 54.858 229.8C55.014 229.2 55.134 228.75 55.224 228.408C55.2589 228.25 55.3071 228.096 55.368 227.946Z" fill="#30846C"/>
<path d="M61.518 230.598C61.4995 230.775 61.4654 230.949 61.416 231.12C61.332 231.486 61.218 231.978 61.068 232.602C60.99 232.926 60.9 233.286 60.804 233.676C60.708 234.066 60.57 234.48 60.432 234.93C60.15 235.824 59.88 236.868 59.442 237.966L58.8 239.712C58.578 240.312 58.284 240.912 58.014 241.572C57.492 242.862 56.814 244.188 56.112 245.586C54.5167 248.591 52.6913 251.467 50.652 254.19C48.5806 256.884 46.3081 259.417 43.854 261.768C42.702 262.83 41.61 263.85 40.518 264.714C39.978 265.152 39.474 265.602 38.952 265.98L37.458 267.09C36.528 267.816 35.61 268.38 34.83 268.89C34.05 269.4 33.36 269.838 32.79 270.168L31.47 270.936C31.3201 271.031 31.1637 271.115 31.002 271.188C31.14 271.075 31.2865 270.973 31.44 270.882L32.724 270.066C33.288 269.718 33.972 269.292 34.734 268.746C35.496 268.2 36.408 267.63 37.332 266.898L38.802 265.8C39.318 265.416 39.816 264.96 40.35 264.522C41.436 263.652 42.51 262.632 43.656 261.57C46.0831 259.211 48.3369 256.681 50.4 253.998C52.4277 251.291 54.2489 248.435 55.848 245.454C56.556 244.062 57.24 242.748 57.774 241.464C58.044 240.828 58.374 240.228 58.566 239.622C58.758 239.016 59.016 238.422 59.226 237.894C59.676 236.796 59.958 235.77 60.258 234.894C60.402 234.444 60.552 234.03 60.66 233.646C60.768 233.262 60.858 232.908 60.942 232.584C61.116 231.984 61.248 231.48 61.35 231.12C61.3955 230.943 61.4516 230.768 61.518 230.598Z" fill="#30846C"/>
<path d="M67.2001 235.272C67.1699 235.447 67.1257 235.62 67.0681 235.788C66.9601 236.154 66.8101 236.64 66.6241 237.264C66.5281 237.582 66.4141 237.936 66.3001 238.32C66.1861 238.704 66.0121 239.118 65.8501 239.568C65.5141 240.45 65.1721 241.476 64.6501 242.568L63.9121 244.29C63.6541 244.89 63.3421 245.49 63.0361 246.126C62.4361 247.398 61.7041 248.706 60.9481 250.092C59.2411 253.054 57.3347 255.897 55.2421 258.6C53.0988 261.275 50.7733 263.799 48.2821 266.154C47.0821 267.216 46.0141 268.236 44.9041 269.106C44.3581 269.544 43.8481 269.988 43.3201 270.378L41.8141 271.494C40.8661 272.22 39.9481 272.79 39.1621 273.294C38.7661 273.552 38.4001 273.804 38.0521 274.014L37.0981 274.578L35.7661 275.346C35.6138 275.44 35.4555 275.525 35.2921 275.598C35.4316 275.484 35.5801 275.382 35.7361 275.292L37.0321 274.476L37.9741 273.876C38.3161 273.66 38.6761 273.402 39.0661 273.138C39.8401 272.592 40.7461 272.016 41.6821 271.278C42.1621 270.918 42.6601 270.546 43.1761 270.15C43.6921 269.754 44.1961 269.31 44.7421 268.866C45.8341 267.996 46.9261 266.97 48.0841 265.914C50.5517 263.555 52.8608 261.036 54.9961 258.372C57.0969 255.684 59.0171 252.86 60.7441 249.918C61.5061 248.538 62.2561 247.248 62.8561 245.982C63.1621 245.382 63.4561 244.782 63.7441 244.182C64.0321 243.582 64.2541 243.012 64.4941 242.472C64.9981 241.392 65.3521 240.372 65.6941 239.472C65.8681 239.034 66.0301 238.626 66.1681 238.242C66.3061 237.858 66.4141 237.51 66.5221 237.192C66.7321 236.592 66.9001 236.1 67.0201 235.74C67.0691 235.58 67.1292 235.424 67.2001 235.272Z" fill="#30846C"/>
<path d="M74.022 259.95C73.8121 259.897 73.6103 259.817 73.422 259.71C73.062 259.542 72.54 259.278 71.904 258.948C70.632 258.288 68.904 257.328 67.014 256.2C65.124 255.072 63.48 253.986 62.298 253.17C61.698 252.762 61.236 252.426 60.912 252.18C60.7366 252.068 60.5755 251.935 60.432 251.784C60.6284 251.859 60.8139 251.96 60.984 252.084L62.418 252.984C63.618 253.752 65.304 254.784 67.176 255.93C69.048 257.076 70.776 258.048 72.012 258.756L73.482 259.602C73.6781 259.691 73.86 259.808 74.022 259.95Z" fill="#30846C"/>
<path d="M75.12 254.322C74.515 253.982 73.9337 253.601 73.38 253.182C72.318 252.456 70.842 251.472 69.18 250.452C67.518 249.432 65.952 248.58 64.824 247.956C64.1998 247.647 63.5983 247.294 63.024 246.9C63.2089 246.942 63.3867 247.011 63.552 247.104C63.882 247.248 64.35 247.47 64.926 247.758C66.078 248.358 67.656 249.168 69.342 250.188C71.028 251.208 72.486 252.228 73.542 253.002C74.058 253.392 74.472 253.71 74.742 253.944C75.012 254.178 75.138 254.31 75.12 254.322Z" fill="#30846C"/>
<path d="M59.094 276.72C59.004 276.72 58.8 271.956 58.638 266.07C58.476 260.184 58.41 255.408 58.494 255.408C58.578 255.408 58.782 260.172 58.95 266.058C59.118 271.944 59.178 276.72 59.094 276.72Z" fill="#30846C"/>
<path d="M46.272 279.702C46.1139 277.72 46.0618 275.731 46.116 273.744C46.0617 271.757 46.1138 269.768 46.272 267.786C46.4266 269.768 46.4787 271.757 46.428 273.744C46.4785 275.731 46.4265 277.72 46.272 279.702Z" fill="#30846C"/>
<path d="M52.572 279C52.488 279 52.44 275.1 52.476 270.294C52.512 265.488 52.602 261.582 52.692 261.582C52.782 261.582 52.818 265.482 52.788 270.294C52.758 275.106 52.656 279 52.572 279Z" fill="#30846C"/>
<path d="M39.276 257.874C39.228 257.946 35.8321 255.756 31.6981 252.978C27.5641 250.2 24.2401 247.89 24.2881 247.8C24.3361 247.71 27.732 249.918 31.872 252.696C36.012 255.474 39.324 257.802 39.276 257.874Z" fill="#30846C"/>
<path d="M34.746 261.6C34.566 261.573 34.3917 261.516 34.23 261.432C33.912 261.306 33.45 261.102 32.892 260.832C31.4501 260.128 30.048 259.344 28.692 258.486C27.096 257.478 25.692 256.476 24.72 255.732C24.1686 255.356 23.6525 254.93 23.178 254.46C23.7604 254.785 24.3197 255.15 24.852 255.552C25.866 256.254 27.252 257.22 28.86 258.222C30.468 259.224 31.932 260.052 33.018 260.622C33.6127 260.914 34.1897 261.24 34.746 261.6Z" fill="#30846C"/>
<path d="M50.358 242.16C50.0644 242.302 49.7593 242.418 49.446 242.508C49.0844 242.642 48.7158 242.756 48.342 242.85C47.91 242.97 47.418 243.108 46.866 243.222C45.5714 243.501 44.261 243.702 42.942 243.822C41.3263 243.966 39.7036 244.016 38.082 243.972C36.4608 243.914 34.8442 243.763 33.24 243.522C31.9313 243.32 30.6352 243.044 29.358 242.694C28.812 242.556 28.326 242.4 27.9 242.262C27.474 242.124 27.102 241.998 26.814 241.878C26.5015 241.776 26.1983 241.648 25.908 241.494C26.2289 241.558 26.5439 241.648 26.85 241.764C27.15 241.866 27.516 241.98 27.948 242.094C28.38 242.208 28.866 242.358 29.412 242.484C30.504 242.766 31.812 243.006 33.282 243.24C34.8739 243.461 36.4759 243.601 38.082 243.66C39.6831 243.701 41.2853 243.659 42.882 243.534C44.1967 243.427 45.5047 243.249 46.8 243C47.358 242.904 47.85 242.778 48.282 242.676C48.714 242.574 49.092 242.478 49.392 242.388C49.7057 242.28 50.0293 242.204 50.358 242.16Z" fill="#30846C"/>
<path d="M53.232 235.428C52.9495 235.587 52.6545 235.724 52.35 235.836C52.062 235.968 51.702 236.1 51.282 236.25C50.862 236.4 50.382 236.574 49.848 236.73C48.5884 237.116 47.3085 237.433 46.014 237.678C44.4266 237.968 42.8241 238.168 41.214 238.278C39.6035 238.374 37.9886 238.374 36.378 238.278C35.064 238.193 33.7571 238.021 32.466 237.762C31.908 237.666 31.416 237.534 30.984 237.42C30.6145 237.329 30.25 237.219 29.892 237.09C29.5792 236.999 29.2742 236.882 28.98 236.742C29.3029 236.789 29.6204 236.867 29.928 236.976C30.222 237.066 30.594 237.156 31.026 237.246C31.458 237.336 31.95 237.462 32.502 237.546C33.7905 237.768 35.0906 237.917 36.396 237.99C37.9956 238.062 39.598 238.048 41.196 237.948C42.7931 237.828 44.3831 237.628 45.96 237.348C47.406 237.066 48.708 236.784 49.776 236.472C50.316 236.328 50.796 236.172 51.222 236.034C51.648 235.896 52.008 235.788 52.302 235.674C52.6037 235.563 52.9151 235.481 53.232 235.428Z" fill="#30846C"/>
<path d="M55.008 229.5C54.7576 229.64 54.4918 229.751 54.216 229.83C53.7 230.028 52.938 230.286 51.996 230.574C49.5296 231.334 47.0081 231.901 44.454 232.272C41.898 232.645 39.3139 232.792 36.732 232.71C35.742 232.668 34.932 232.608 34.392 232.542C34.1044 232.526 33.8191 232.482 33.54 232.41C33.8275 232.384 34.1166 232.384 34.404 232.41C34.95 232.44 35.748 232.464 36.738 232.476C39.3012 232.498 41.8624 232.327 44.4 231.966C46.9409 231.589 49.4558 231.054 51.93 230.364C52.878 230.1 53.646 229.878 54.174 229.716C54.4455 229.621 54.7245 229.549 55.008 229.5Z" fill="#30846C"/>
<path d="M65.52 255.09C64.4897 256.446 63.3777 257.739 62.19 258.96C61.0787 260.252 59.8905 261.477 58.632 262.626C59.6631 261.268 60.7751 259.974 61.962 258.75C63.0724 257.459 64.2606 256.236 65.52 255.09Z" fill="#30846C"/>
<path d="M70.512 258.042C70.4473 258.222 70.3563 258.392 70.2421 258.546C70.0501 258.864 69.7501 259.302 69.3601 259.836C67.3124 262.609 64.696 264.912 61.6861 266.592C61.0861 266.91 60.6361 267.15 60.3001 267.3C60.1324 267.393 59.9527 267.461 59.7661 267.504C59.7661 267.462 60.4621 267.084 61.5661 266.4C63.0141 265.514 64.3868 264.511 65.67 263.4C66.9388 262.27 68.1109 261.035 69.1741 259.71C70.0081 258.678 70.47 258 70.512 258.042Z" fill="#30846C"/>
<path d="M72.03 260.706C71.919 261.886 71.5622 263.029 70.9825 264.062C70.4027 265.096 69.6129 265.996 68.664 266.706C69.4178 265.825 70.1038 264.889 70.716 263.904C71.232 262.872 71.6712 261.803 72.03 260.706Z" fill="#30846C"/>
<path d="M77.064 266.22C76.8824 267.186 76.4406 268.084 75.786 268.818C75.2109 269.616 74.4258 270.239 73.518 270.618C74.2356 269.996 74.9129 269.328 75.546 268.62C76.098 267.85 76.6048 267.049 77.064 266.22Z" fill="#30846C"/>
<path d="M85.2001 271.2C85.2283 272.237 84.9575 273.259 84.4201 274.146C83.9699 275.08 83.254 275.861 82.3621 276.39C83.0329 275.646 83.6354 274.842 84.1621 273.99C84.5892 273.092 84.9366 272.159 85.2001 271.2Z" fill="#30846C"/>
<path d="M94.518 275.676C94.7404 276.65 94.6371 277.67 94.224 278.58C93.906 279.524 93.2916 280.341 92.472 280.908C93.7235 279.444 94.4444 277.601 94.518 275.676Z" fill="#30846C"/>
<path d="M103.122 283.35C103.032 283.32 103.392 282.15 103.476 280.686C103.56 279.222 103.35 278.016 103.44 277.998C104.014 279.758 103.9 281.67 103.122 283.35Z" fill="#30846C"/>
<path d="M110.172 283.866C110.088 283.83 110.52 282.786 110.634 281.424C110.748 280.062 110.514 278.964 110.634 278.946C110.931 279.747 111.046 280.604 110.97 281.455C110.894 282.306 110.63 283.13 110.196 283.866H110.172Z" fill="#30846C"/>
<path d="M120.036 283.8C119.946 283.8 120.09 282.774 119.928 281.544C119.766 280.314 119.382 279.372 119.466 279.336C119.922 279.974 120.19 280.726 120.24 281.508C120.39 282.276 120.32 283.071 120.036 283.8Z" fill="#30846C"/>
<path d="M126.852 283.2C126.756 283.2 126.756 282.234 126.432 281.112C126.108 279.99 125.622 279.156 125.7 279.108C126.18 279.664 126.532 280.319 126.732 281.026C126.931 281.733 126.972 282.475 126.852 283.2Z" fill="#30846C"/>
<path d="M134.85 281.442C134.754 281.442 134.802 280.5 134.448 279.426C134.094 278.352 133.524 277.626 133.602 277.554C134.134 278.035 134.529 278.648 134.748 279.33C134.967 280.013 135.003 280.741 134.85 281.442Z" fill="#30846C"/>
<path d="M144.696 279.438C144.6 279.438 144.588 278.388 144.15 277.194C143.712 276 143.052 275.184 143.124 275.124C143.717 275.661 144.17 276.335 144.444 277.086C144.718 277.838 144.805 278.645 144.696 279.438Z" fill="#30846C"/>
<path d="M153 276.198C152.91 276.198 152.58 275.136 151.872 273.948C151.164 272.76 150.378 271.944 150.444 271.878C151.817 272.938 152.732 274.484 153 276.198Z" fill="#30846C"/>
<path d="M162.282 271.332C162.192 271.332 161.91 270.204 161.154 268.992C160.398 267.78 159.51 267.012 159.57 266.94C160.319 267.426 160.95 268.072 161.419 268.831C161.888 269.591 162.183 270.445 162.282 271.332Z" fill="#30846C"/>
<path d="M171.348 264.834C170.953 264.134 170.51 263.463 170.022 262.824C169.461 262.25 168.86 261.716 168.222 261.228C169.038 261.456 169.756 261.945 170.268 262.62C170.856 263.223 171.235 263.999 171.348 264.834Z" fill="#30846C"/>
<path d="M179.112 258.204C179.034 258.258 178.314 257.292 177.222 256.308C176.13 255.324 175.11 254.682 175.158 254.598C176.015 254.917 176.792 255.421 177.432 256.074C178.14 256.653 178.714 257.38 179.112 258.204Z" fill="#30846C"/>
<path d="M186.066 249.558C185.988 249.606 185.388 248.634 184.332 247.758C183.276 246.882 182.226 246.438 182.262 246.348C183.098 246.562 183.874 246.963 184.533 247.52C185.191 248.077 185.716 248.776 186.066 249.564V249.558Z" fill="#30846C"/>
<path d="M192.264 239.268C191.563 238.708 190.832 238.187 190.074 237.708C189.266 237.324 188.436 236.986 187.59 236.694C188.521 236.689 189.434 236.946 190.224 237.438C191.066 237.84 191.774 238.475 192.264 239.268Z" fill="#30846C"/>
<path d="M196.032 228.15C194.412 227.211 192.549 226.772 190.68 226.89C191.605 226.622 192.584 226.597 193.521 226.818C194.459 227.038 195.324 227.497 196.032 228.15Z" fill="#30846C"/>
<path d="M197.706 216.21C197.676 216.3 196.698 215.958 195.444 215.826C194.19 215.694 193.164 215.826 193.152 215.706C194.678 215.275 196.311 215.456 197.706 216.21Z" fill="#30846C"/>
<path d="M197.088 204.252C196.523 204.324 195.953 204.348 195.384 204.324C194.821 204.397 194.253 204.425 193.686 204.408C194.761 203.934 195.974 203.878 197.088 204.252Z" fill="#30846C"/>
<path d="M194.64 196.038C194.048 195.915 193.444 195.86 192.84 195.876C192.254 195.99 191.682 196.169 191.136 196.41C191.136 196.38 191.244 196.206 191.532 196.014C191.915 195.767 192.351 195.612 192.804 195.564C193.257 195.513 193.716 195.571 194.142 195.732C194.49 195.858 194.658 196.002 194.64 196.038Z" fill="#30846C"/>
<g opacity="0.3">
<path d="M153.948 236.4C156.858 241.926 163.644 244.764 169.848 244.008C176.052 243.252 181.578 239.394 185.448 234.474C188.298 230.838 190.41 226.128 189.234 221.664C186.156 228.062 180.772 233.059 174.163 235.652C167.553 238.245 160.207 238.242 153.6 235.644" fill="black"/>
</g>
<path d="M190.26 188.85C188.866 186.701 188.355 184.098 188.833 181.582C189.312 179.065 190.743 176.831 192.828 175.344C194.484 174.144 196.482 173.502 198.048 172.206C199.006 171.366 199.786 170.343 200.342 169.197C200.898 168.052 201.22 166.806 201.288 165.534C201.404 162.982 200.838 160.445 199.65 158.184L201.318 157.362L201.462 157.542C202.57 158.996 203.341 160.678 203.72 162.466C204.1 164.254 204.078 166.104 203.657 167.883C203.236 169.662 202.426 171.325 201.285 172.753C200.144 174.181 198.7 175.339 197.058 176.142C195.809 176.715 194.634 177.439 193.56 178.296C191.478 180.096 192.33 182.142 192.33 182.142" fill="#30846C"/>
<g opacity="0.7">
<path d="M190.26 188.85C188.866 186.701 188.355 184.098 188.833 181.582C189.312 179.065 190.743 176.831 192.828 175.344C194.484 174.144 196.482 173.502 198.048 172.206C199.006 171.366 199.786 170.343 200.342 169.197C200.898 168.052 201.22 166.806 201.288 165.534C201.404 162.982 200.838 160.445 199.65 158.184L201.318 157.362L201.462 157.542C202.57 158.996 203.341 160.678 203.72 162.466C204.1 164.254 204.078 166.104 203.657 167.883C203.236 169.662 202.426 171.325 201.285 172.753C200.144 174.181 198.7 175.339 197.058 176.142C195.809 176.715 194.634 177.439 193.56 178.296C191.478 180.096 192.33 182.142 192.33 182.142" fill="white"/>
</g>
<path d="M192.6 182.25C191.921 182.115 191.229 182.055 190.536 182.07C189.849 182.181 189.177 182.368 188.532 182.628C189.077 182.132 189.769 181.827 190.503 181.759C191.237 181.691 191.973 181.863 192.6 182.25Z" fill="#30846C"/>
<path d="M194.172 177.672C194.088 177.702 193.824 177.18 193.332 176.688C192.84 176.196 192.324 175.92 192.354 175.836C192.384 175.752 193.008 175.914 193.554 176.466C194.1 177.018 194.25 177.648 194.172 177.672Z" fill="#30846C"/>
<path d="M200.058 174.192C199.974 174.222 199.758 173.64 199.284 173.07C198.81 172.5 198.3 172.164 198.342 172.086C198.384 172.008 199.014 172.242 199.542 172.878C200.07 173.514 200.142 174.18 200.058 174.192Z" fill="#30846C"/>
<path d="M204 166.728C203.541 166.696 203.085 166.626 202.638 166.518C202.179 166.508 201.721 166.457 201.27 166.368C201.72 166.199 202.204 166.143 202.68 166.206C203.156 166.269 203.61 166.448 204 166.728Z" fill="#30846C"/>
<path d="M202.662 159.516C202.662 159.606 202.152 159.576 201.594 159.744C201.036 159.912 200.622 160.182 200.562 160.116C200.502 160.05 200.862 159.624 201.504 159.444C202.146 159.264 202.686 159.438 202.662 159.516Z" fill="#30846C"/>
<path d="M147.126 203.934C149.25 202.554 152.064 203.01 154.476 203.808C156.888 204.606 159.306 205.71 161.832 205.47C164.586 205.212 166.944 203.376 168.762 201.3C171.008 198.733 172.68 195.716 173.664 192.45C174.66 189.126 175.17 185.22 178.032 183.252C180.894 181.284 184.866 182.274 187.326 184.602C189.786 186.93 190.974 190.29 191.754 193.602C193.554 201.234 193.584 209.376 191.112 216.822C188.64 224.268 183.558 230.94 176.658 234.672C169.758 238.404 161.058 238.938 154.038 235.446" fill="#30846C"/>
<path d="M154.038 235.428C154.148 235.466 154.257 235.51 154.362 235.56L155.298 235.968C155.718 236.13 156.24 236.322 156.858 236.568C157.476 236.814 158.208 236.982 159.042 237.168C161.063 237.605 163.131 237.788 165.198 237.714C166.487 237.662 167.771 237.514 169.038 237.27C170.459 237.011 171.855 236.625 173.208 236.118C176.326 234.953 179.199 233.218 181.68 231C184.536 228.473 186.912 225.45 188.694 222.078C190.661 218.353 191.949 214.308 192.498 210.132C193.09 205.648 192.993 201.099 192.21 196.644C191.85 194.384 191.285 192.161 190.524 190.002C189.809 187.902 188.585 186.011 186.96 184.5C185.356 183.084 183.273 182.332 181.134 182.4C180.11 182.444 179.115 182.754 178.248 183.3C177.41 183.853 176.712 184.592 176.208 185.46C175.176 187.164 174.732 189.108 174.228 190.944C173.786 192.755 173.15 194.513 172.332 196.188C171.563 197.751 170.623 199.224 169.53 200.58C168.543 201.852 167.379 202.978 166.074 203.922C164.883 204.792 163.496 205.355 162.036 205.56C160.731 205.679 159.416 205.538 158.166 205.146C155.832 204.456 153.924 203.568 152.238 203.298C150.961 203.015 149.635 203.048 148.374 203.394C148.051 203.495 147.738 203.626 147.438 203.784C147.234 203.898 147.126 203.946 147.126 203.946L147.42 203.76C147.715 203.587 148.026 203.444 148.35 203.334C149.62 202.956 150.966 202.902 152.262 203.178C153.966 203.436 155.898 204.312 158.214 204.978C159.442 205.355 160.733 205.486 162.012 205.362C163.437 205.154 164.789 204.598 165.948 203.742C167.232 202.805 168.376 201.69 169.344 200.43C170.416 199.082 171.34 197.621 172.098 196.074C172.905 194.412 173.531 192.668 173.964 190.872C174.462 189.042 174.9 187.074 175.962 185.31C176.486 184.402 177.216 183.629 178.092 183.054C178.991 182.479 180.026 182.15 181.092 182.1C182.181 182.049 183.268 182.219 184.29 182.598C185.335 182.973 186.301 183.539 187.14 184.266C188.801 185.81 190.054 187.742 190.788 189.888C191.559 192.068 192.129 194.313 192.492 196.596C193.285 201.08 193.38 205.66 192.774 210.174C192.218 214.385 190.913 218.464 188.922 222.216C187.121 225.621 184.716 228.671 181.824 231.216C179.312 233.434 176.409 235.164 173.262 236.316C171.898 236.818 170.493 237.2 169.062 237.456C167.784 237.692 166.491 237.832 165.192 237.876C163.111 237.938 161.03 237.737 159 237.276C158.166 237.096 157.446 236.856 156.816 236.676C156.186 236.496 155.676 236.25 155.262 236.076L154.338 235.638C154.14 235.488 154.038 235.428 154.038 235.428Z" fill="#263238"/>
<path d="M179.862 190.29C179.555 190.036 179.309 189.716 179.142 189.354C178.689 188.497 178.462 187.539 178.482 186.57C178.494 185.603 178.747 184.654 179.22 183.81C179.394 183.449 179.651 183.134 179.97 182.892C180.012 182.928 179.724 183.276 179.418 183.912C179.02 184.745 178.808 185.654 178.794 186.576C178.781 187.499 178.967 188.414 179.34 189.258C179.634 189.9 179.91 190.26 179.862 190.29Z" fill="#263238"/>
<path d="M183.504 189.762C183.229 189.479 183.013 189.145 182.868 188.778C182.466 187.91 182.23 186.973 182.172 186.018C182.112 185.064 182.234 184.107 182.532 183.198C182.629 182.815 182.803 182.456 183.042 182.142C182.594 183.376 182.404 184.689 182.483 186C182.562 187.311 182.91 188.591 183.504 189.762Z" fill="#263238"/>
<path d="M186.42 190.8C186.041 189.89 185.885 188.903 185.964 187.92C185.938 186.934 186.143 185.956 186.564 185.064C186.654 185.094 186.312 186.342 186.276 187.926C186.24 189.51 186.51 190.8 186.42 190.8Z" fill="#263238"/>
<path d="M236.514 198.3C231.024 201.648 223.722 201.012 218.034 198.006C212.346 195 208.038 189.966 204.444 184.686C203.424 183.186 202.392 181.596 200.808 180.69C197.694 178.89 193.392 180.63 191.604 183.69C189.816 186.75 190.152 190.674 191.532 193.95C191.532 193.95 195.192 211.686 214.272 222.714" fill="#30846C"/>
<path d="M214.272 222.732C214.214 222.712 214.159 222.684 214.11 222.648L213.642 222.372C213.222 222.114 212.628 221.742 211.842 221.274C211.464 221.022 211.008 220.782 210.558 220.446L209.088 219.372C208.566 218.97 207.966 218.592 207.402 218.094L205.602 216.552C202.633 213.892 199.992 210.887 197.736 207.6C196.374 205.622 195.171 203.539 194.136 201.372C192.974 199.014 192.057 196.543 191.4 193.998V194.028C190.487 191.94 190.106 189.658 190.29 187.386C190.406 186.2 190.744 185.046 191.286 183.984C191.991 182.645 193.074 181.541 194.399 180.81C195.724 180.078 197.235 179.751 198.744 179.868C199.623 179.972 200.466 180.276 201.21 180.756C201.921 181.241 202.553 181.834 203.082 182.514C203.616 183.174 204.084 183.87 204.54 184.548C204.996 185.226 205.47 185.892 205.938 186.54C206.886 187.842 207.858 189.084 208.86 190.242C210.74 192.457 212.882 194.435 215.238 196.134C217.296 197.613 219.58 198.749 222 199.5C225.495 200.638 229.241 200.754 232.8 199.836C233.097 199.763 233.389 199.673 233.676 199.566C233.946 199.47 234.204 199.392 234.432 199.296C234.888 199.092 235.284 198.936 235.584 198.78L236.274 198.414C236.351 198.369 236.431 198.331 236.514 198.3C236.444 198.354 236.37 198.402 236.292 198.444L235.614 198.834C235.314 199.002 234.924 199.164 234.468 199.38C234.234 199.482 233.982 199.566 233.712 199.668C233.424 199.782 233.13 199.878 232.83 199.956C229.245 200.932 225.454 200.846 221.916 199.71C219.47 198.967 217.162 197.83 215.082 196.344C212.702 194.641 210.538 192.655 208.638 190.428C207.624 189.264 206.646 188.028 205.692 186.72C205.218 186.066 204.75 185.394 204.288 184.716C203.826 184.038 203.364 183.348 202.842 182.706C202.331 182.054 201.724 181.484 201.042 181.014C200.338 180.561 199.54 180.275 198.708 180.18C196.983 180.023 195.26 180.498 193.86 181.518C192.92 182.205 192.141 183.088 191.577 184.107C191.013 185.125 190.678 186.255 190.596 187.416C190.418 189.636 190.789 191.865 191.676 193.908V193.938C192.323 196.466 193.228 198.921 194.376 201.264C195.413 203.422 196.617 205.497 197.976 207.468C200.212 210.747 202.831 213.748 205.776 216.408L207.576 217.962C208.134 218.466 208.728 218.844 209.238 219.252L210.696 220.344C211.14 220.686 211.59 220.944 211.968 221.184L213.726 222.324L214.176 222.624C214.211 222.657 214.243 222.693 214.272 222.732Z" fill="#263238"/>
<path d="M196.692 190.734C196.238 189.284 195.598 187.899 194.79 186.612C193.386 184.512 191.598 183.408 191.67 183.324C192.088 183.498 192.475 183.739 192.816 184.038C194.55 185.408 195.82 187.279 196.452 189.396C196.609 189.825 196.69 190.277 196.692 190.734Z" fill="#263238"/>
<path d="M200.4 188.328C200.164 186.805 199.728 185.321 199.104 183.912C198.384 182.55 197.491 181.288 196.446 180.156C196.841 180.395 197.195 180.695 197.496 181.044C198.264 181.853 198.901 182.776 199.386 183.78C199.869 184.783 200.196 185.853 200.358 186.954C200.451 187.406 200.465 187.871 200.4 188.328Z" fill="#263238"/>
<g opacity="0.3">
<path d="M187.998 223.542C189.492 221.256 183.336 220.716 180.624 221.034C176.652 221.49 172.991 223.406 170.353 226.41C167.714 229.413 166.285 233.29 166.344 237.288C166.344 237.288 178.2 238.554 187.998 223.542Z" fill="white"/>
</g>
<g opacity="0.3">
<path d="M198.108 213.336C201.227 218.107 205.853 221.697 211.248 223.536C211.814 223.782 212.436 223.869 213.048 223.788C213.35 223.743 213.626 223.595 213.83 223.368C214.034 223.141 214.152 222.851 214.164 222.546C207.75 219.057 202.252 214.1 198.12 208.08C197.805 209.927 198.069 211.825 198.876 213.516" fill="black"/>
</g>
<path d="M189.853 172.847C195.137 167.563 195.137 158.997 189.853 153.713C184.569 148.429 176.003 148.429 170.719 153.713C165.435 158.997 165.435 167.563 170.719 172.847C176.002 178.131 184.569 178.131 189.853 172.847Z" fill="#F5F5F5"/>
<path d="M193.8 163.848C193.8 170.382 190.368 175.848 186.546 175.848C182.724 175.848 179.622 170.55 179.622 164.022C179.622 157.494 182.724 152.196 186.546 152.196C190.368 152.196 193.8 157.32 193.8 163.848Z" fill="#263238"/>
<path d="M183.18 169.458C183.067 169.324 182.974 169.175 182.904 169.014C182.687 168.59 182.5 168.151 182.346 167.7C181.301 164.689 181.389 161.4 182.592 158.448C182.77 158.006 182.982 157.578 183.228 157.17C183.304 157.012 183.403 156.867 183.522 156.738C183.57 156.738 183.21 157.41 182.802 158.538C182.276 159.995 181.984 161.526 181.938 163.074C181.898 164.62 182.101 166.163 182.538 167.646C182.904 168.768 183.234 169.434 183.18 169.458Z" fill="white"/>
<path d="M188.274 158.754C189.553 158.754 190.59 157.717 190.59 156.438C190.59 155.159 189.553 154.122 188.274 154.122C186.995 154.122 185.958 155.159 185.958 156.438C185.958 157.717 186.995 158.754 188.274 158.754Z" fill="white"/>
<path d="M189.048 146.58C188.79 146.934 188.136 146.928 187.314 146.796C186.492 146.664 185.46 146.424 184.344 146.244C183.228 146.064 182.22 145.956 181.41 145.842C180.6 145.728 179.976 145.566 179.814 145.158C179.652 144.75 180.042 144.168 180.954 143.682C181.49 143.408 182.068 143.223 182.664 143.136C183.392 143.022 184.132 143.022 184.86 143.136C186.172 143.335 187.393 143.925 188.364 144.828C189.084 145.572 189.294 146.238 189.048 146.58Z" fill="#263238"/>
<path d="M182.916 180.174C181.872 178.028 181.642 175.576 182.269 173.273C182.896 170.971 184.338 168.974 186.326 167.654C188.315 166.334 190.715 165.781 193.08 166.098C195.446 166.414 197.616 167.578 199.188 169.374" fill="#30846C"/>
<path d="M199.2 169.374C199.2 169.374 198.912 169.104 198.378 168.642C197.615 167.994 196.757 167.468 195.834 167.082C194.47 166.505 193 166.223 191.52 166.254C189.7 166.237 187.917 166.765 186.399 167.768C184.881 168.772 183.697 170.207 183 171.888C182.398 173.24 182.087 174.704 182.088 176.184C182.088 177.183 182.24 178.176 182.538 179.13C182.754 179.802 182.922 180.162 182.892 180.174C182.836 180.098 182.79 180.015 182.754 179.928C182.628 179.683 182.518 179.431 182.424 179.172C182.071 178.211 181.884 177.196 181.872 176.172C181.832 174.654 182.127 173.147 182.736 171.756C183.44 170.02 184.652 168.537 186.213 167.5C187.773 166.464 189.611 165.923 191.484 165.948C193.001 165.93 194.504 166.244 195.888 166.866C196.82 167.276 197.676 167.839 198.42 168.534C198.624 168.72 198.814 168.921 198.99 169.134C199.07 169.205 199.14 169.286 199.2 169.374Z" fill="#263238"/>
<path d="M156.048 128.94C155.952 128.99 155.849 129.025 155.742 129.042L154.848 129.282C154.458 129.378 153.984 129.516 153.438 129.684L152.568 129.942L151.596 130.272C148.069 131.504 144.686 133.114 141.504 135.072C138.318 137.037 135.271 139.218 132.384 141.6C131.274 142.512 130.38 143.256 129.774 143.784L129.06 144.384C128.898 144.522 128.808 144.588 128.796 144.576C128.861 144.49 128.936 144.412 129.018 144.342L129.69 143.7C130.29 143.148 131.148 142.38 132.24 141.438C135.1 139.008 138.143 136.801 141.342 134.838C144.542 132.852 147.966 131.253 151.542 130.074L152.52 129.756L153.408 129.522C153.96 129.366 154.434 129.246 154.83 129.168L155.742 128.988C155.842 128.96 155.944 128.944 156.048 128.94Z" fill="#263238"/>
<path d="M69.036 55.668C68.9286 55.4437 68.8461 55.2083 68.79 54.966C68.718 54.738 68.64 54.45 68.568 54.12C68.496 53.79 68.4 53.4 68.34 52.98C68.1755 51.988 68.0832 50.9853 68.064 49.98C68.0489 48.7452 68.1332 47.5112 68.316 46.29C68.5158 45.0689 68.8107 43.8652 69.198 42.69C69.5295 41.7359 69.9306 40.8074 70.398 39.912C70.584 39.522 70.794 39.192 70.962 38.892C71.13 38.592 71.292 38.352 71.43 38.154C71.558 37.9384 71.7089 37.7373 71.88 37.554C71.928 37.584 71.334 38.466 70.596 40.002C70.1698 40.9017 69.801 41.8276 69.492 42.774C69.1248 43.9385 68.8401 45.1275 68.64 46.332C68.4635 47.538 68.3732 48.7551 68.37 49.974C68.3754 50.9775 68.4456 51.9795 68.58 52.974C68.796 54.636 69.096 55.656 69.036 55.668Z" fill="#263238"/>
<path d="M210.747 18.9472L80.6438 43.1543L94.2598 116.334L224.363 92.1273L210.747 18.9472Z" fill="white"/>
<path d="M224.364 92.124C224.364 92.124 224.268 91.68 224.106 90.816C223.944 89.952 223.698 88.668 223.38 86.994C222.75 83.646 221.82 78.708 220.632 72.372C218.232 59.706 214.836 41.43 210.624 18.972L210.768 19.068L80.676 43.302L80.802 43.116C85.602 69 90.216 93.756 94.41 116.316L94.236 116.196L187.836 98.85L214.722 93.888L221.886 92.574L223.734 92.238L224.37 92.13L223.77 92.256L221.94 92.604L214.8 93.942L187.956 99L94.284 116.478L94.14 116.508V116.364C89.94 93.816 85.332 69.066 80.508 43.164V43.008H80.658L210.72 18.822H210.84V18.936L220.728 72.444C221.892 78.774 222.798 83.7 223.416 87.048L224.112 90.852C224.292 91.692 224.364 92.124 224.364 92.124Z" fill="#263238"/>
<path d="M136.602 71.196L132.6 71.94L133.56 77.082L126.156 78.462L125.196 73.32L111 75.96L110.076 71.01L119.004 52.008L126.87 50.544L118.854 68.268L124.302 67.254L123.45 62.688L130.65 61.356L131.502 65.916L135.486 65.178L136.602 71.196Z" fill="#263238"/>
<path d="M136.596 62.628C134.946 53.766 138.996 47.736 145.854 46.458C152.712 45.18 158.616 49.362 160.254 58.224C161.892 67.086 157.854 73.116 151.038 74.382C144.222 75.648 138.246 71.49 136.596 62.628ZM152.634 59.628C151.584 54 149.4 52.2 147 52.674C144.6 53.148 143.172 55.566 144.222 61.206C145.272 66.846 147.426 68.628 149.88 68.172C152.334 67.716 153.684 65.28 152.634 59.64V59.628Z" fill="#263238"/>
<path d="M189.738 61.308L185.748 62.052L186.702 67.194L179.304 68.574L178.344 63.432L164.148 66.072L163.23 61.122L172.158 42.12L180 40.656L172.008 58.38L177.456 57.366L176.604 52.8L183.804 51.468L184.65 56.028L188.64 55.29L189.738 61.308Z" fill="#263238"/>
<path d="M139.248 92.85L139.494 94.158L131.85 95.58L129.888 85.044L137.322 83.664L137.562 84.972L131.634 86.076L132.234 89.31L137.52 88.326L137.76 89.61L132.474 90.6L133.11 93.996L139.248 92.85Z" fill="#263238"/>
<path d="M148.968 92.4L146.094 89.586C145.89 89.64 145.668 89.7 145.44 89.742L142.836 90.228L143.436 93.432L141.936 93.714L139.974 83.178L144.084 82.41C146.82 81.9 148.734 82.98 149.16 85.266C149.33 85.9917 149.256 86.7532 148.949 87.4324C148.642 88.1115 148.119 88.6703 147.462 89.022L150.618 92.094L148.968 92.4ZM147.648 85.548C147.366 84.042 146.202 83.37 144.276 83.748L141.714 84.222L142.596 88.962L145.158 88.488C147.084 88.104 147.93 87.048 147.648 85.542V85.548Z" fill="#263238"/>
<path d="M159.906 90.36L157.032 87.546C156.828 87.6 156.606 87.66 156.378 87.702L153.774 88.182L154.374 91.392L152.874 91.668L150.912 81.138L155.022 80.37C157.758 79.86 159.672 80.97 160.098 83.226C160.272 83.9543 160.2 84.7199 159.893 85.4028C159.586 86.0857 159.061 86.6475 158.4 87L161.556 90.072L159.906 90.36ZM158.586 83.508C158.304 82.002 157.14 81.33 155.214 81.708L152.652 82.182L153.534 86.922L156.096 86.448C158.022 86.07 158.868 85.008 158.586 83.508Z" fill="#263238"/>
<path d="M161.964 84.528C161.394 81.444 163.338 78.696 166.578 78.096C169.818 77.496 172.578 79.344 173.178 82.446C173.778 85.548 171.804 88.272 168.6 88.872C165.396 89.472 162.54 87.6 161.964 84.528ZM171.66 82.728C171.519 81.9137 171.14 81.1596 170.569 80.5617C169.999 79.9639 169.263 79.5493 168.456 79.3708C167.65 79.1922 166.808 79.2578 166.038 79.5591C165.269 79.8605 164.606 80.3839 164.135 81.0629C163.664 81.7419 163.406 82.5457 163.393 83.3719C163.38 84.1982 163.614 85.0096 164.064 85.7028C164.513 86.3961 165.159 86.9398 165.919 87.2648C166.679 87.5899 167.518 87.6815 168.33 87.528C168.871 87.4451 169.389 87.2527 169.853 86.9627C170.317 86.6728 170.717 86.2912 171.029 85.8414C171.341 85.3917 171.557 84.8831 171.666 84.3467C171.774 83.8104 171.772 83.2575 171.66 82.722V82.728Z" fill="#263238"/>
<path d="M183.486 85.974L180.6 83.16C180.39 83.214 180.168 83.268 179.94 83.31L177.336 83.796L177.936 87L176.43 87.282L174.468 76.746L178.578 75.984C181.32 75.474 183.228 76.548 183.654 78.84C183.826 79.5657 183.753 80.328 183.446 81.0076C183.139 81.6873 182.615 82.2459 181.956 82.596L185.112 85.668L183.486 85.974ZM182.16 79.116C181.884 77.616 180.714 76.944 178.788 77.316L176.232 77.79L177.114 82.53L179.67 82.056C181.596 81.684 182.442 80.622 182.16 79.116Z" fill="#263238"/>
<path d="M208.002 26.868C208.023 27.4046 207.884 27.9353 207.603 28.393C207.323 28.8507 206.912 29.2147 206.424 29.4388C205.936 29.663 205.393 29.7372 204.862 29.6522C204.332 29.5671 203.839 29.3266 203.446 28.961C203.053 28.5954 202.777 28.1213 202.653 27.5988C202.529 27.0762 202.564 26.5287 202.751 26.0256C202.939 25.5226 203.272 25.0866 203.708 24.773C204.144 24.4594 204.663 24.2822 205.2 24.264C205.916 24.2396 206.613 24.4999 207.138 24.9878C207.663 25.4758 207.974 26.1518 208.002 26.868Z" fill="#E0E0E0"/>
<path d="M208.002 26.868C207.972 26.868 207.966 26.628 207.834 26.226C207.642 25.6645 207.274 25.1803 206.784 24.846C206.388 24.5779 205.926 24.4246 205.448 24.4028C204.971 24.3811 204.497 24.4919 204.078 24.7229C203.66 24.9539 203.313 25.2961 203.077 25.7117C202.841 26.1274 202.724 26.6002 202.74 27.078C202.764 27.5539 202.918 28.014 203.186 28.4079C203.454 28.8018 203.825 29.1142 204.26 29.3108C204.694 29.5073 205.173 29.5804 205.646 29.5221C206.119 29.4637 206.567 29.2762 206.94 28.98C207.404 28.61 207.733 28.0976 207.876 27.522C207.978 27.108 207.966 26.868 207.996 26.868C208.026 26.868 207.996 26.928 208.026 27.042C208.037 27.2106 208.027 27.3799 207.996 27.546C207.889 28.1718 207.564 28.7395 207.078 29.148C206.717 29.4557 206.284 29.6671 205.819 29.7625C205.354 29.858 204.873 29.8344 204.42 29.694C203.858 29.5197 203.365 29.1756 203.007 28.7092C202.649 28.2427 202.444 27.6767 202.421 27.0892C202.398 26.5017 202.558 25.9215 202.878 25.4284C203.199 24.9354 203.664 24.5537 204.21 24.336C204.65 24.1588 205.128 24.0962 205.599 24.1539C206.071 24.2116 206.519 24.3878 206.904 24.666C207.419 25.0379 207.787 25.5797 207.942 26.196C207.988 26.358 208.01 26.5257 208.008 26.694C208.014 26.808 208.014 26.868 208.002 26.868Z" fill="#263238"/>
<path d="M206.49 24.984C206.624 25.7079 206.492 26.456 206.118 27.09C205.839 27.77 205.323 28.3262 204.666 28.656C205.094 28.1129 205.485 27.5416 205.836 26.946C206.097 26.307 206.315 25.6516 206.49 24.984Z" fill="#263238"/>
<path d="M207 27.858C206.922 27.906 206.562 27.192 205.746 26.772C205.23 26.5631 204.686 26.4297 204.132 26.376C204.132 26.334 204.312 26.25 204.642 26.226C205.075 26.2034 205.505 26.2966 205.89 26.496C206.274 26.6944 206.597 26.9929 206.826 27.36C207 27.642 207.06 27.846 207 27.858Z" fill="#263238"/>
<path d="M86.4085 62.647L79.5829 68.0899L82.0444 71.1766L88.8699 65.7337L86.4085 62.647Z" fill="#E0E0E0"/>
<path d="M88.866 65.742C88.866 65.742 88.59 65.442 88.146 64.914L86.346 62.724H86.508C84.756 64.152 82.362 66.084 79.71 68.196C79.71 68.394 79.71 67.932 79.71 67.98L79.752 68.034L79.836 68.136L79.998 68.334L80.316 68.736L80.916 69.522L82.116 71.022H81.906C83.874 69.468 85.584 68.148 86.814 67.2L88.266 66.096C88.4428 65.9515 88.6292 65.8192 88.824 65.7C88.6828 65.8476 88.5303 65.984 88.368 66.108L86.988 67.26C85.788 68.244 84.096 69.66 82.092 71.256L81.978 71.346L81.882 71.232L80.682 69.738C80.472 69.48 80.262 69.222 80.052 68.952L79.734 68.556L79.572 68.352L79.488 68.25L79.452 68.202C79.452 68.25 79.5 67.788 79.452 67.986C82.104 65.868 84.522 63.966 86.304 62.586L86.394 62.52L86.466 62.604C87.228 63.588 87.834 64.404 88.266 64.932C88.484 65.1881 88.6845 65.4587 88.866 65.742Z" fill="#263238"/>
<path d="M78.048 72C78.3445 72.3756 78.7121 72.6892 79.1299 72.9226C79.5476 73.1561 80.0073 73.305 80.4826 73.3607C80.9579 73.4164 81.4396 73.3779 81.9 73.2474C82.3604 73.1169 82.7906 72.8969 83.166 72.6L78.6 66.9C77.8538 67.5054 77.3771 68.3811 77.2737 69.3363C77.1703 70.2916 77.4486 71.249 78.048 72Z" fill="#E0E0E0"/>
<path d="M78.048 72C77.9377 71.9096 77.8425 71.8023 77.766 71.682C77.5401 71.3492 77.3737 70.9797 77.274 70.59C77.1137 69.9885 77.1137 69.3555 77.274 68.754C77.4718 67.9732 77.9157 67.2768 78.54 66.768L78.654 66.678L78.744 66.792L81.024 69.63C81.828 70.638 82.59 71.604 83.286 72.486L83.376 72.6L83.262 72.69C82.6275 73.1844 81.852 73.4639 81.048 73.488C80.422 73.5038 79.8024 73.3592 79.248 73.068C78.8923 72.8828 78.5715 72.6372 78.3 72.342C78.1987 72.2418 78.1137 72.1264 78.048 72C78.4284 72.3633 78.8588 72.6704 79.326 72.912C79.9314 73.1917 80.6026 73.2977 81.2648 73.2182C81.9269 73.1388 82.554 72.877 83.076 72.462V72.666L80.796 69.828L78.534 66.972H78.732C78.2101 67.3894 77.8146 67.9439 77.59 68.5734C77.3653 69.2028 77.3203 69.8824 77.46 70.536C77.5877 71.0487 77.7856 71.5414 78.048 72Z" fill="#263238"/>
<path d="M78.888 70.11C78.6076 70.4351 78.4237 70.8321 78.3569 71.2561C78.2901 71.6802 78.3431 72.1144 78.51 72.51" fill="#E0E0E0"/>
<path d="M78.51 72.534C78.3528 72.3631 78.2417 72.1551 78.1871 71.9294C78.1325 71.7037 78.1363 71.4678 78.198 71.244C78.312 70.464 78.84 70.044 78.888 70.11C78.936 70.176 78.6 70.62 78.504 71.31C78.408 72 78.6 72.492 78.51 72.534Z" fill="#263238"/>
<path d="M83.178 70.5C82.6942 70.0047 82.2489 69.4731 81.846 68.91C81.3668 68.4138 80.9255 67.8823 80.526 67.32C81.1455 67.6587 81.6792 68.1349 82.086 68.712C82.5772 69.2203 82.9501 69.8309 83.178 70.5Z" fill="#263238"/>
<path d="M84 69.864C83.519 69.3678 83.0757 68.8363 82.674 68.274C82.1934 67.777 81.752 67.2433 81.354 66.678C82.5348 67.4514 83.4565 68.5612 84 69.864Z" fill="#263238"/>
<path d="M84.78 69.222C84.2972 68.7274 83.8538 68.1958 83.454 67.632C82.9719 67.1368 82.5286 66.6052 82.128 66.042C82.7487 66.3813 83.2842 66.8573 83.694 67.434C84.1815 67.9441 84.5521 68.5542 84.78 69.222Z" fill="#263238"/>
<path d="M85.578 68.586C85.097 68.0898 84.6537 67.5583 84.252 66.996C83.7735 66.4971 83.3323 65.9636 82.932 65.4C83.548 65.7437 84.0806 66.219 84.492 66.792C84.9842 67.3008 85.3554 67.914 85.578 68.586Z" fill="#263238"/>
<path d="M86.4 67.944C85.9172 67.4494 85.4738 66.9178 85.074 66.354C84.5926 65.8597 84.1512 65.3281 83.754 64.764C84.371 65.1063 84.9039 65.5818 85.314 66.156C85.8015 66.6661 86.1721 67.2762 86.4 67.944Z" fill="#263238"/>
<path d="M87.18 67.308C86.6989 66.8118 86.2557 66.2803 85.854 65.718C85.3755 65.2191 84.9343 64.6856 84.534 64.122C85.15 64.4657 85.6826 64.941 86.094 65.514C86.5862 66.0228 86.9574 66.636 87.18 67.308Z" fill="#263238"/>
<path d="M87.984 66.666C87.5011 66.1714 87.0578 65.6398 86.6579 65.076C86.1766 64.5817 85.7352 64.0501 85.338 63.486C85.955 63.8283 86.4879 64.3038 86.898 64.878C87.3855 65.3881 87.756 65.9982 87.984 66.666Z" fill="#263238"/>
<path d="M92.7 49.2C92.67 49.2 92.664 48.954 92.532 48.552C92.3417 47.98 91.9658 47.488 91.464 47.154C91.0637 46.8809 90.5955 46.7241 90.1115 46.701C89.6275 46.6779 89.1465 46.7894 88.722 47.0231C88.2975 47.2568 87.946 47.6036 87.7067 48.0249C87.4673 48.4463 87.3494 48.9257 87.366 49.41C87.3872 49.8946 87.5424 50.3639 87.8144 50.7655C88.0864 51.1672 88.4645 51.4856 88.9066 51.6852C89.3487 51.8848 89.8375 51.9578 90.3187 51.8962C90.7999 51.8345 91.2545 51.6406 91.632 51.336C92.1028 50.9626 92.4362 50.4434 92.58 49.86C92.682 49.446 92.67 49.2 92.7 49.2C92.73 49.2 92.7 49.26 92.73 49.374C92.7414 49.5446 92.7313 49.7159 92.7 49.884C92.6024 50.5207 92.2838 51.1027 91.8 51.528C91.4355 51.8402 90.9972 52.0543 90.5269 52.1498C90.0565 52.2454 89.5695 52.2193 89.112 52.074C88.5517 51.8925 88.0605 51.5436 87.7047 51.0742C87.3488 50.6049 87.1454 50.0378 87.1219 49.4493C87.0983 48.8608 87.2558 48.2792 87.573 47.783C87.8902 47.2867 88.352 46.8997 88.896 46.674C89.3427 46.4962 89.8269 46.4338 90.304 46.4925C90.7811 46.5513 91.2358 46.7292 91.626 47.01C92.1463 47.3873 92.5178 47.9351 92.676 48.558C92.7197 48.7226 92.7439 48.8917 92.748 49.062C92.728 49.154 92.712 49.2 92.7 49.2Z" fill="#263238"/>
<path d="M74.88 55.848C74.778 55.6221 74.6977 55.387 74.64 55.146C74.5479 54.867 74.4737 54.5824 74.418 54.294C74.346 53.964 74.244 53.586 74.19 53.16C74.0235 52.1681 73.9292 51.1655 73.908 50.16C73.8608 47.6822 74.2466 45.2151 75.048 42.87C75.3781 41.9134 75.7792 40.9828 76.248 40.086C76.428 39.696 76.638 39.366 76.806 39.072C76.9494 38.8182 77.1056 38.5719 77.274 38.334C77.4036 38.1195 77.5543 37.9185 77.724 37.734C77.778 37.77 77.178 38.646 76.446 40.188C76.013 41.0855 75.6421 42.0117 75.336 42.96C74.9688 44.1221 74.6861 45.3092 74.49 46.512C74.3084 47.7196 74.2161 48.9389 74.214 50.16C74.2189 51.1635 74.2891 52.1656 74.424 53.16C74.64 54.816 74.94 55.83 74.88 55.848Z" fill="#263238"/>
<path d="M233.094 82.2C233.205 82.4229 233.287 82.6587 233.34 82.902C233.429 83.1797 233.503 83.4621 233.562 83.748C233.634 84.084 233.736 84.462 233.79 84.888C233.957 85.8798 234.051 86.8825 234.072 87.888C234.118 90.3657 233.732 92.8325 232.932 95.178C232.603 96.1331 232.202 97.0618 231.732 97.956C231.546 98.346 231.342 98.676 231.168 98.976C231.027 99.2315 230.871 99.478 230.7 99.714C230.575 99.93 230.426 100.131 230.256 100.314C230.202 100.284 230.802 99.402 231.534 97.866C231.96 96.9653 232.33 96.0396 232.644 95.094C233.012 93.93 233.294 92.7409 233.49 91.536C233.671 90.3304 233.764 89.1131 233.766 87.894C233.757 86.8906 233.687 85.8887 233.556 84.894C233.34 83.256 233.04 82.236 233.094 82.2Z" fill="#263238"/>
<path d="M237 83.256C237.109 83.4795 237.192 83.7151 237.246 83.958C237.335 84.2357 237.409 84.5181 237.468 84.804C237.54 85.14 237.636 85.518 237.696 85.944C237.863 86.9358 237.957 87.9385 237.978 88.944C237.99 90.1787 237.906 91.4124 237.726 92.634C237.527 93.8559 237.23 95.0598 236.838 96.234C236.508 97.1906 236.107 98.1212 235.638 99.018C235.452 99.402 235.248 99.732 235.074 100.032C234.93 100.297 234.772 100.553 234.6 100.8C234.475 101.016 234.326 101.217 234.156 101.4C234.102 101.37 234.702 100.488 235.434 98.952C235.862 98.0522 236.233 97.1264 236.544 96.18C236.912 95.016 237.195 93.8269 237.39 92.622C237.572 91.4165 237.664 90.1991 237.666 88.98C237.658 87.9766 237.588 86.9747 237.456 85.98C237.24 84.288 236.94 83.268 237 83.256Z" fill="#263238"/>
<path d="M106.518 130.326C110.317 125.251 112.076 118.936 111.448 112.628C110.819 106.32 107.849 100.477 103.123 96.2513C98.3965 92.026 92.2583 89.7258 85.9193 89.8046C79.5803 89.8835 73.5012 92.3357 68.8817 96.6773C64.2623 101.019 61.4381 106.934 60.9667 113.256C60.4952 119.578 62.4107 125.847 66.3351 130.826C70.2595 135.805 75.9077 139.131 82.1648 140.15C88.422 141.168 94.8335 139.804 100.134 136.326L108.846 140.184L106.518 130.326Z" fill="#FAFAFA"/>
<path d="M78.552 113.712C78.6261 112.757 78.9927 111.847 79.602 111.108C80.1682 110.359 80.9552 109.807 81.852 109.53C82.6187 109.308 83.4372 109.348 84.179 109.642C84.9208 109.937 85.5437 110.469 85.95 111.156C86.2956 110.468 86.8509 109.908 87.5358 109.556C88.2206 109.205 88.9996 109.08 89.76 109.2C90.675 109.376 91.5132 109.831 92.16 110.502C92.849 111.169 93.3197 112.028 93.51 112.968C93.7282 114.171 93.5514 115.413 93.006 116.508C92.367 117.624 91.47 118.57 90.39 119.268C88.644 120.468 86.346 121.968 86.346 121.968C86.346 121.968 84.24 120.582 82.368 119.598C81.212 119.033 80.208 118.2 79.44 117.168C78.7813 116.141 78.47 114.929 78.552 113.712Z" fill="#30846C"/>
<path d="M86.208 89.898C86.0603 89.8848 85.9117 89.8848 85.764 89.898L84.474 89.94C84.186 89.94 83.874 89.94 83.52 89.982L82.38 90.138L81.048 90.33L79.56 90.702C77.0032 91.3461 74.5704 92.4085 72.36 93.846C69.0813 95.931 66.3233 98.7388 64.2974 102.054C62.2714 105.37 61.0313 109.105 60.672 112.974C60.5727 114.135 60.5486 115.302 60.6 116.466C60.642 117.066 60.6 117.666 60.714 118.266C60.828 118.866 60.894 119.466 60.99 120.066C61.4363 122.537 62.245 124.929 63.39 127.164C64.6151 129.504 66.1756 131.653 68.022 133.542C69.9873 135.477 72.2399 137.096 74.7 138.342C77.245 139.649 80.0017 140.494 82.842 140.838C83.5607 140.951 84.2865 141.013 85.014 141.024C85.7446 141.08 86.4778 141.094 87.21 141.066C88.6891 141.005 90.1604 140.818 91.608 140.508C94.7325 139.831 97.7021 138.574 100.362 136.8L100.098 136.83L109.014 140.43L109.542 140.646L109.392 140.094L106.8 130.53L106.758 130.764C109.175 127.558 110.803 123.827 111.51 119.874C111.853 118.035 111.97 116.161 111.858 114.294C111.84 113.391 111.754 112.49 111.6 111.6C111.534 111.162 111.462 110.73 111.396 110.298C111.33 109.866 111.186 109.452 111.084 109.032C109.595 103.173 106.071 98.0351 101.142 94.536C99.3203 93.2279 97.3277 92.1761 95.22 91.41L93.888 90.936L92.622 90.612L91.464 90.324C91.092 90.252 90.732 90.216 90.396 90.162C89.724 90.078 89.13 89.964 88.596 89.934L87.282 89.892H86.484C86.3945 89.8788 86.3035 89.8788 86.214 89.892C86.3028 89.9118 86.3931 89.9238 86.484 89.928L87.282 89.988L88.578 90.078C89.094 90.12 89.682 90.246 90.348 90.348C95.1851 91.183 99.6757 93.4043 103.275 96.7423C106.874 100.08 109.426 104.391 110.622 109.152C110.718 109.566 110.844 109.974 110.922 110.394C111 110.814 111.048 111.246 111.114 111.672C111.259 112.543 111.337 113.423 111.348 114.306C111.45 116.138 111.329 117.975 110.988 119.778C110.282 123.647 108.674 127.296 106.296 130.428L106.218 130.536L106.254 130.668C107.094 133.746 107.958 136.932 108.852 140.202L109.23 139.866L100.32 136.266L100.182 136.212L100.05 136.29C97.4463 138.011 94.5448 139.232 91.494 139.89C90.0801 140.193 88.6429 140.376 87.198 140.436C86.4818 140.461 85.7647 140.447 85.05 140.394C84.3407 140.382 83.6331 140.322 82.932 140.214C80.1554 139.88 77.4597 139.058 74.97 137.784C72.5533 136.575 70.3373 135 68.4 133.116C66.5899 131.268 65.056 129.168 63.846 126.882C62.7112 124.698 61.9027 122.359 61.446 119.94C61.356 119.34 61.266 118.74 61.176 118.182C61.086 117.624 61.098 116.982 61.056 116.43C60.8388 112.032 61.7816 107.655 63.7898 103.736C65.7981 99.8176 68.8011 96.4959 72.498 94.104C74.6739 92.6623 77.0689 91.5823 79.59 90.906L81.06 90.516L82.38 90.3L83.508 90.114C83.856 90.072 84.174 90.066 84.456 90.042L85.746 89.946C85.9009 89.9398 86.0552 89.9238 86.208 89.898Z" fill="#263238"/>
</svg>
